<svg xmlns="http://www.w3.org/2000/svg" xmlns:xlink="http://www.w3.org/1999/xlink" width="32" height="32" viewBox="0 0 32 32">
  <defs>
    <clipPath id="clip-path">
      <rect id="Rectangle_2055" data-name="Rectangle 2055" width="32" height="32" transform="translate(299.5 8.5)" fill="#21d68c" stroke="#707070" stroke-width="1"/>
    </clipPath>
  </defs>
  <g id="Mask_Group_9" data-name="Mask Group 9" transform="translate(-299.5 -8.5)" clip-path="url(#clip-path)">
    <g id="gift_2_" data-name="gift (2)" transform="translate(299.5 8.5)">
      <g id="Group_1570" data-name="Group 1570">
        <g id="Group_1569" data-name="Group 1569">
          <path id="Path_2569" data-name="Path 2569" d="M2,16.981v12a2,2,0,0,0,2,2H14v-14Z" fill="#21d68c"/>
        </g>
      </g>
      <g id="Group_1572" data-name="Group 1572">
        <g id="Group_1571" data-name="Group 1571">
          <path id="Path_2570" data-name="Path 2570" d="M30,8.981H23.672a7.771,7.771,0,0,0,1.116-.894,4.18,4.18,0,0,0,0-5.884,4.226,4.226,0,0,0-5.866,0c-.868.87-3.168,4.412-2.85,6.778h-.144c.316-2.366-1.984-5.908-2.85-6.778a4.23,4.23,0,0,0-5.866,0,4.186,4.186,0,0,0,0,5.884,7.915,7.915,0,0,0,1.118.894H2a2,2,0,0,0-2,2v3a1,1,0,0,0,1,1H14v-4h4v4H31a1,1,0,0,0,1-1v-3A2,2,0,0,0,30,8.981ZM13.882,8.915a.659.659,0,0,1-.37.066,9.834,9.834,0,0,1-4.882-2.3,2.181,2.181,0,0,1,0-3.064,2.132,2.132,0,0,1,3.03,0C13.008,4.969,14.348,8.433,13.882,8.915Zm4.6.066c-.284,0-.368-.064-.368-.066-.466-.482.874-3.946,2.222-5.3a2.155,2.155,0,0,1,3.03,3.064A9.833,9.833,0,0,1,18.486,8.981Z" fill="#21d68c"/>
        </g>
      </g>
      <g id="Group_1574" data-name="Group 1574">
        <g id="Group_1573" data-name="Group 1573">
          <path id="Path_2571" data-name="Path 2571" d="M18,16.981v14H28a2,2,0,0,0,2-2v-12Z" fill="#21d68c"/>
        </g>
      </g>
    </g>
  </g>
</svg>
