<svg xmlns="http://www.w3.org/2000/svg" width="74.82" height="74.779" viewBox="0 0 74.82 74.779">
  <g id="check" transform="translate(-175.709 -296.205)">
    <g id="Group_1072" data-name="Group 1072">
      <ellipse id="Ellipse_338" data-name="Ellipse 338" cx="37.41" cy="37.39" rx="37.41" ry="37.39" transform="translate(175.709 296.204)" fill="#0ebca3"/>
      <path id="Path_1730" data-name="Path 1730" d="M553.449,466.5l21.7-21.691a1.884,1.884,0,0,0,0-2.669l-2.671-2.65a1.882,1.882,0,0,0-2.666,0l-17.7,17.692-8.265-8.28a1.894,1.894,0,0,0-2.67,0l-2.67,2.685a1.892,1.892,0,0,0,0,2.669l12.271,12.26a1.886,1.886,0,0,0,2.67,0Z" transform="translate(-343.248 -119.727)" fill="#eaf9f2"/>
    </g>
  </g>
</svg>
