<svg xmlns="http://www.w3.org/2000/svg" xmlns:xlink="http://www.w3.org/1999/xlink" width="333" height="169.427" viewBox="0 0 333 169.427">
  <defs>
    <linearGradient id="linear-gradient" x1="0.5" x2="0.5" y2="1" gradientUnits="objectBoundingBox">
      <stop offset="0" stop-color="#22d78c"/>
      <stop offset="1" stop-color="#0ebca4"/>
    </linearGradient>
    <filter id="Path_2657" x="0" y="0" width="333" height="169.427" filterUnits="userSpaceOnUse">
      <feOffset dy="3" input="SourceAlpha"/>
      <feGaussianBlur stdDeviation="3" result="blur"/>
      <feFlood flood-opacity="0.161"/>
      <feComposite operator="in" in2="blur"/>
      <feComposite in="SourceGraphic"/>
    </filter>
  </defs>
  <g id="Group_1606" data-name="Group 1606" transform="translate(-20 -339)">
    <g transform="matrix(1, 0, 0, 1, 20, 339)" filter="url(#Path_2657)">
      <path id="Path_2657-2" data-name="Path 2657" d="M7,0H308a7,7,0,0,1,7,7V144.427a7,7,0,0,1-7,7H7a7,7,0,0,1-7-7V7A7,7,0,0,1,7,0Z" transform="translate(9 6)" fill="url(#linear-gradient)"/>
    </g>
    <text id="Course" transform="translate(186.137 421.568)" fill="#eaf9f2" font-size="19" font-family="SFProText-Bold, SF Pro Text" font-weight="700" letter-spacing="-0.01em"><tspan x="0" y="0">Course</tspan></text>
    <g id="running" transform="translate(45 340.588)">
      <g id="Group_1611" data-name="Group 1611" transform="translate(7.248 34.372)">
        <g id="Group_1610" data-name="Group 1610">
          <path id="Path_2591" data-name="Path 2591" d="M51.985,68.5H33.624a3.624,3.624,0,0,0,0,7.248H51.985a3.624,3.624,0,0,0,0-7.248Z" transform="translate(-30 -68.5)" fill="#eaf9f2"/>
        </g>
      </g>
      <g id="Group_1613" data-name="Group 1613" transform="translate(7.248 63.362)">
        <g id="Group_1612" data-name="Group 1612">
          <path id="Path_2592" data-name="Path 2592" d="M51.985,188.5H33.624a3.624,3.624,0,0,0,0,7.248H51.985a3.624,3.624,0,0,0,0-7.248Z" transform="translate(-30 -188.5)" fill="#eaf9f2"/>
        </g>
      </g>
      <g id="Group_1615" data-name="Group 1615" transform="translate(0 48.867)">
        <g id="Group_1614" data-name="Group 1614">
          <path id="Path_2593" data-name="Path 2593" d="M21.985,128.5H3.624a3.624,3.624,0,0,0,0,7.248H21.985a3.624,3.624,0,1,0,0-7.248Z" transform="translate(0 -128.5)" fill="#eaf9f2"/>
        </g>
      </g>
      <g id="Group_1617" data-name="Group 1617" transform="translate(47.352 45.237)">
        <g id="Group_1616" data-name="Group 1616">
          <path id="Path_2594" data-name="Path 2594" d="M265.095,135.225H243.11v-14.5a7.26,7.26,0,0,0-12.374-5.122L201.747,144.6a7.245,7.245,0,0,0,0,10.249l16.619,16.619-20.243,20.243a7.247,7.247,0,0,0,10.249,10.249l25.367-25.367a7.245,7.245,0,0,0,0-10.249L217.12,149.721l11.494-11.494v4.247a7.248,7.248,0,0,0,7.248,7.248h29.232a7.248,7.248,0,1,0,0-14.5Z" transform="translate(-196 -113.477)" fill="#eaf9f2"/>
        </g>
      </g>
      <g id="Group_1619" data-name="Group 1619" transform="translate(36.48 28.937)">
        <g id="Group_1618" data-name="Group 1618">
          <path id="Path_2595" data-name="Path 2595" d="M182.2,47.222a7.25,7.25,0,0,0-9.145.906L153.122,68.06a7.247,7.247,0,1,0,10.249,10.248l15.73-15.73,5.3,3.817,7.08-7.08a14.412,14.412,0,0,1,4.109-2.821Z" transform="translate(-150.999 -46.006)" fill="#eaf9f2"/>
        </g>
      </g>
      <g id="Group_1621" data-name="Group 1621" transform="translate(3.865 85.19)">
        <g id="Group_1620" data-name="Group 1620">
          <path id="Path_2596" data-name="Path 2596" d="M60.109,285.39a14.365,14.365,0,0,1-3.708-6.54L18.123,317.127a7.247,7.247,0,0,0,10.249,10.249l36.861-36.861Z" transform="translate(-16 -278.85)" fill="#eaf9f2"/>
        </g>
      </g>
      <g id="Group_1623" data-name="Group 1623" transform="translate(87.214 23.5)">
        <g id="Group_1622" data-name="Group 1622">
          <circle id="Ellipse_410" data-name="Ellipse 410" cx="10.872" cy="10.872" r="10.872" fill="#eaf9f2"/>
        </g>
      </g>
    </g>
  </g>
</svg>
