<svg xmlns="http://www.w3.org/2000/svg" width="302" height="302" viewBox="0 0 302 302">
  <g id="Group_1716" data-name="Group 1716" transform="translate(-37 -206)">
    <g id="Path_2667" data-name="Path 2667" transform="translate(37 206)" fill="none">
      <path d="M151,0A151,151,0,1,1,0,151,151,151,0,0,1,151,0Z" stroke="none"/>
      <path d="M 151 25 C 81.52337646484375 25 25 81.52337646484375 25 151 C 25 220.4766235351562 81.52337646484375 277 151 277 C 220.4766235351562 277 277 220.4766235351562 277 151 C 277 81.52337646484375 220.4766235351562 25 151 25 M 151 0 C 234.3949890136719 0 302 67.60499572753906 302 151 C 302 234.3949890136719 234.3949890136719 302 151 302 C 67.60499572753906 302 0 234.3949890136719 0 151 C 0 67.60499572753906 67.60499572753906 0 151 0 Z" stroke="none" fill="#eaf9f2"/>
    </g>
    <text id="_29:59" data-name="29:59" transform="translate(189 380)" fill="#eaf9f2" font-size="92" font-family="DINCondensed-Bold, DIN Condensed" font-weight="700" letter-spacing="-0.01em"><tspan x="-75.164" y="0">29:59</tspan></text>
    <g id="up-arrow" transform="translate(55 276.266)">
      <path id="Path_2665" data-name="Path 2665" d="M35.331,76.406,18.666,59.742a1.124,1.124,0,0,0-1.644,0L.358,76.406a1.124,1.124,0,0,0,0,1.645l1.788,1.787a1.125,1.125,0,0,0,1.645,0L17.844,65.785,31.9,79.839a1.126,1.126,0,0,0,1.645,0l1.788-1.788a1.127,1.127,0,0,0,0-1.645Z" transform="translate(116 -70.3)" fill="#eaf9f2"/>
      <path id="Path_2666" data-name="Path 2666" d="M.356,63.174,17.021,79.838a1.124,1.124,0,0,0,1.644,0L35.329,63.174a1.125,1.125,0,0,0,0-1.645l-1.788-1.787a1.125,1.125,0,0,0-1.645,0L17.843,73.8,3.789,59.741a1.126,1.126,0,0,0-1.645,0L.357,61.529a1.127,1.127,0,0,0,0,1.645Z" transform="translate(116 97.7)" fill="#eaf9f2"/>
    </g>
  </g>
</svg>
