<svg xmlns="http://www.w3.org/2000/svg" xmlns:xlink="http://www.w3.org/1999/xlink" width="94.503" height="94.503" viewBox="0 0 94.503 94.503">
  <defs>
    <filter id="Ellipse_403" x="0" y="0" width="94.503" height="94.503" filterUnits="userSpaceOnUse">
      <feOffset dy="10" input="SourceAlpha"/>
      <feGaussianBlur stdDeviation="10" result="blur"/>
      <feFlood flood-color="#6c63ff" flood-opacity="0.251"/>
      <feComposite operator="in" in2="blur"/>
      <feComposite in="SourceGraphic"/>
    </filter>
  </defs>
  <g id="Group_1708" data-name="Group 1708" transform="translate(-19.973 -81.524)">
    <g id="Location_pin" data-name="Location pin" transform="translate(44 95.551)">
      <circle id="Ellipse_402" data-name="Ellipse 402" cx="23.225" cy="23.225" r="23.225" transform="translate(0 0)" fill="#fff" opacity="0.5"/>
      <g transform="matrix(1, 0, 0, 1, -24.03, -14.03)" filter="url(#Ellipse_403)">
        <circle id="Ellipse_403-2" data-name="Ellipse 403" cx="17.252" cy="17.252" r="17.252" transform="translate(30 20)" fill="#21d68c"/>
      </g>
    </g>
    <g id="Group_1555" data-name="Group 1555" transform="translate(57.935 112.565)">
      <g id="_1" data-name="1" transform="translate(0 0)">
        <g id="Group_1552" data-name="Group 1552" transform="translate(6.974 0)">
          <path id="Path_2547" data-name="Path 2547" d="M146.037,46.592c-1.336.535-3.787,2.986-6.117,5.792-2.845,2.079-4.758,6.132-5.874,8.764-.082-.324-.154-.635-.22-.935-.077-.345-.141-.676-.2-.989a8.691,8.691,0,0,1,.293-5.08,11.421,11.421,0,0,1,1.463-2.382C137.2,49.339,143.4,46.336,146.037,46.592Z" transform="translate(-133.407 -46.576)" fill="#eaf9f2"/>
          <path id="Path_2548" data-name="Path 2548" d="M169.517,46.87c-4.735,3.875.283,12.539-11.335,14.719a56.409,56.409,0,0,1,5.205-8.909l.013-.018C165.73,49.855,168.18,47.405,169.517,46.87Z" transform="translate(-156.886 -46.854)" fill="#aad15d"/>
          <path id="Path_2549" data-name="Path 2549" d="M169.517,46.87c-4.735,3.875.283,12.539-11.335,14.719a56.409,56.409,0,0,1,5.205-8.909l.013-.018C165.73,49.855,168.18,47.405,169.517,46.87Z" transform="translate(-156.886 -46.854)" fill="#eaf9f2"/>
        </g>
        <g id="Group_1553" data-name="Group 1553" transform="translate(0 1.746)">
          <path id="Path_2550" data-name="Path 2550" d="M6.814,85.8a8.688,8.688,0,0,0-.293,5.08c.055.313.118.644.2.989-3.374-.46-4.283-1.509-5.4-3.2C.1,86.808-.427,81.749.414,79.981,1.4,82.783,4.922,83.316,6.814,85.8Z" transform="translate(-0.003 -79.981)" fill="#eaf9f2"/>
          <path id="Path_2551" data-name="Path 2551" d="M13.971,90.888c-2.357-2.62-6.042-8.928-6.108-10.9.985,2.8,4.508,3.335,6.4,5.822A8.689,8.689,0,0,0,13.971,90.888Z" transform="translate(-7.452 -79.987)" fill="#eaf9f2"/>
        </g>
      </g>
    </g>
  </g>
</svg>
