<svg xmlns="http://www.w3.org/2000/svg" xmlns:xlink="http://www.w3.org/1999/xlink" width="334.444" height="169" viewBox="0 0 334.444 169">
  <defs>
    <linearGradient id="linear-gradient" x1="0.5" x2="0.5" y2="1" gradientUnits="objectBoundingBox">
      <stop offset="0" stop-color="#22d78c"/>
      <stop offset="1" stop-color="#0ebca4"/>
    </linearGradient>
    <filter id="Rectangle_2066" x="0" y="0" width="334.444" height="169" filterUnits="userSpaceOnUse">
      <feOffset dy="3" input="SourceAlpha"/>
      <feGaussianBlur stdDeviation="3" result="blur"/>
      <feFlood flood-opacity="0.161"/>
      <feComposite operator="in" in2="blur"/>
      <feComposite in="SourceGraphic"/>
    </filter>
  </defs>
  <g id="Group_1727" data-name="Group 1727" transform="translate(-20 -149.215)">
    <g id="Group_1608" data-name="Group 1608" transform="translate(0 -0.785)">
      <g transform="matrix(1, 0, 0, 1, 20, 150)" filter="url(#Rectangle_2066)">
        <rect id="Rectangle_2066-2" data-name="Rectangle 2066" width="316.444" height="151" rx="7" transform="translate(9 6)" fill="url(#linear-gradient)"/>
      </g>
      <text id="Endurance" transform="translate(188 233.42)" fill="#eaf9f2" font-size="19" font-family="SFProText-Bold, SF Pro Text" font-weight="700" letter-spacing="-0.01em"><tspan x="0" y="0">Endurance</tspan></text>
    </g>
    <g id="Group_1726" data-name="Group 1726" transform="translate(2 215)">
      <g id="pedestrian-walking" transform="translate(-47.321 -42.587)">
        <g id="Group_1609" data-name="Group 1609" transform="translate(112.321 0)">
          <path id="Path_2588" data-name="Path 2588" d="M195.3,19.714a9.19,9.19,0,0,0,6.742-3.112,9.563,9.563,0,0,0,2.593-7,9.841,9.841,0,0,0-2.982-6.872A8.932,8.932,0,0,0,194.786.006a9.19,9.19,0,0,0-6.742,3.112,10.049,10.049,0,0,0-2.723,7,9.167,9.167,0,0,0,2.982,6.872A9.338,9.338,0,0,0,195.3,19.714Z" transform="translate(-169.126 0)" fill="#eaf9f2"/>
          <path id="Path_2589" data-name="Path 2589" d="M167.822,113.649,155,106.244,144.5,88.471a9.106,9.106,0,0,0-7.462-3.949,8.36,8.36,0,0,0-5.83,2.715l-15.858,17.032a5.59,5.59,0,0,0-.933,2.222l-2.1,19.007v.494a4.162,4.162,0,0,0,1.166,2.962,3.715,3.715,0,0,0,2.8,1.234,3.364,3.364,0,0,0,2.682-1.234,5.45,5.45,0,0,0,1.283-2.715l1.632-16.292,5.6-5.924-5.13,45.419-9.095,21.475a9.1,9.1,0,0,0-.466,2.716,6.4,6.4,0,0,0,1.749,4.567,4.989,4.989,0,0,0,4.314,1.6,5.384,5.384,0,0,0,5.13-3.456l9.794-23.2a2.948,2.948,0,0,1,.233-.864q.234-.618.466-1.111a2.3,2.3,0,0,0,.233-.987l1.166-11.108L145.9,175.607q1.632,4.443,5.83,4.2a5.449,5.449,0,0,0,4.081-1.851,6.4,6.4,0,0,0,1.749-4.567,2.122,2.122,0,0,0-.117-.617,2.142,2.142,0,0,1-.117-.618l-13.992-50.6,1.632-16.538,3.964,6.665a4.292,4.292,0,0,0,1.166,1.234l13.759,8.146a7.288,7.288,0,0,0,1.866.494,3.57,3.57,0,0,0,2.8-1.358,4.607,4.607,0,0,0,1.166-3.086A3.917,3.917,0,0,0,167.822,113.649Z" transform="translate(-112.321 -62.604)" fill="#eaf9f2"/>
        </g>
      </g>
    </g>
  </g>
</svg>
