<svg xmlns="http://www.w3.org/2000/svg" width="31.13" height="23.397" viewBox="0 0 31.13 23.397">
  <g id="Group_1556" data-name="Group 1556" transform="translate(-123 287.846)">
    <g id="_1" data-name="1" transform="translate(123 -287.846)">
      <g id="Group_1552" data-name="Group 1552" transform="translate(11.074 0)">
        <path id="Path_2547" data-name="Path 2547" d="M153.462,46.6c-2.122.85-6.012,4.741-9.713,9.2-4.518,3.3-7.554,9.737-9.327,13.917-.13-.515-.245-1.009-.349-1.484-.123-.548-.223-1.074-.31-1.571-.641-3.686-.378-6.056.465-8.066a18.134,18.134,0,0,1,2.324-3.783C139.423,50.964,149.272,46.194,153.462,46.6Z" transform="translate(-133.407 -46.576)" fill="#95f0cb"/>
        <path id="Path_2548" data-name="Path 2548" d="M176.18,46.87c-7.518,6.153.449,19.911-18,23.372A89.568,89.568,0,0,1,166.446,56.1c.007-.011.015-.018.021-.029C170.168,51.611,174.058,47.72,176.18,46.87Z" transform="translate(-156.125 -46.845)" fill="#aad15d"/>
        <path id="Path_2549" data-name="Path 2549" d="M176.18,46.87c-7.518,6.153.449,19.911-18,23.372A89.568,89.568,0,0,1,166.446,56.1c.007-.011.015-.018.021-.029C170.168,51.611,174.058,47.72,176.18,46.87Z" transform="translate(-156.125 -46.845)" fill="#21d68c"/>
      </g>
      <g id="Group_1553" data-name="Group 1553" transform="translate(0 2.773)">
        <path id="Path_2550" data-name="Path 2550" d="M10.818,89.225c-.843,2.01-1.106,4.381-.465,8.066.087.5.187,1.023.31,1.571-5.357-.731-6.8-2.4-8.567-5.08C.152,90.821-.68,82.788.656,79.981,2.219,84.43,7.814,85.277,10.818,89.225Z" transform="translate(-0.003 -79.981)" fill="#95f0cb"/>
        <path id="Path_2551" data-name="Path 2551" d="M17.561,97.3c-3.743-4.161-9.593-14.176-9.7-17.31,1.563,4.449,7.158,5.3,10.163,9.244C17.183,91.241,16.92,93.611,17.561,97.3Z" transform="translate(-7.211 -79.987)" fill="#21d68c"/>
      </g>
    </g>
  </g>
</svg>
