<svg xmlns="http://www.w3.org/2000/svg" xmlns:xlink="http://www.w3.org/1999/xlink" width="334.444" height="168" viewBox="0 0 334.444 168">
  <defs>
    <linearGradient id="linear-gradient" x1="0.5" x2="0.5" y2="1" gradientUnits="objectBoundingBox">
      <stop offset="0" stop-color="#22d78c"/>
      <stop offset="1" stop-color="#0ebca4"/>
    </linearGradient>
    <filter id="Rectangle_2070" x="0" y="0" width="334.444" height="168" filterUnits="userSpaceOnUse">
      <feOffset dy="3" input="SourceAlpha"/>
      <feGaussianBlur stdDeviation="3" result="blur"/>
      <feFlood flood-opacity="0.161"/>
      <feComposite operator="in" in2="blur"/>
      <feComposite in="SourceGraphic"/>
    </filter>
  </defs>
  <g id="Group_1729" data-name="Group 1729" transform="translate(-20 -528)">
    <g transform="matrix(1, 0, 0, 1, 20, 528)" filter="url(#Rectangle_2070)">
      <rect id="Rectangle_2070-2" data-name="Rectangle 2070" width="316.444" height="150" rx="7" transform="translate(9 6)" fill="url(#linear-gradient)"/>
    </g>
    <text id="Forêt" transform="translate(236 615.98)" fill="#eaf9f2" font-size="20" font-family="SFProText-Bold, SF Pro Text" font-weight="700" letter-spacing="-0.01em"><tspan x="0" y="0">Forêt</tspan></text>
    <g id="trees" transform="translate(43.994 548.979)">
      <g id="Group_1624" data-name="Group 1624" transform="translate(43.006 0.001)">
        <path id="Path_2597" data-name="Path 2597" d="M120.776,56.362a18.1,18.1,0,0,0-6.367-13.79,15.875,15.875,0,0,0,2.341-8.351,16.127,16.127,0,0,0-14.231-15.994A16.069,16.069,0,0,0,73.488,6.773a16.053,16.053,0,0,0-26.2,0A16.079,16.079,0,0,0,18.261,18.226,16.127,16.127,0,0,0,4.03,34.221a15.875,15.875,0,0,0,2.341,8.351,18.116,18.116,0,0,0,0,27.576A15.875,15.875,0,0,0,4.03,78.5a16.121,16.121,0,0,0,16.1,16.1H32.21v22.141H26.172a2.013,2.013,0,1,0,0,4.026H94.609a2.013,2.013,0,0,0,0-4.026H88.57V94.606h12.077a16.121,16.121,0,0,0,16.1-16.1,15.875,15.875,0,0,0-2.341-8.351A18.1,18.1,0,0,0,120.776,56.362ZM20.133,90.562A12.089,12.089,0,0,1,8.056,78.5,11.94,11.94,0,0,1,10.7,70.977a2.013,2.013,0,0,0-.317-2.829q-.063-.051-.13-.1a14.09,14.09,0,0,1,0-23.381,2.013,2.013,0,0,0,.542-2.794c-.03-.045-.062-.088-.1-.13a11.94,11.94,0,0,1-2.643-7.526A12.089,12.089,0,0,1,20.133,22.144l.521.028a1.969,1.969,0,0,0,1.669-.779,2,2,0,0,0,.336-1.812,12.077,12.077,0,0,1,22.48-8.625.1.1,0,0,1-.014.06,15.84,15.84,0,0,0-.58,2.311c-.024.135-.042.272-.062.4a15.17,15.17,0,0,0-.054,4.491,16.127,16.127,0,0,0-14.231,16,15.875,15.875,0,0,0,2.341,8.351c-.036.032-.066.066-.1.1l-9.37-9.37a2.013,2.013,0,0,0-2.846,2.846L29.7,45.631a18.1,18.1,0,0,0,2.834,24.521,15.752,15.752,0,0,0-1.763,4.07l-7.206-7.206a2.013,2.013,0,0,0-2.846,2.846l9.519,9.519c.016.28.02.562.05.835.02.189.058.37.085.556.052.372.1.743.183,1.107.046.217.111.427.165.64.083.322.165.646.268.96.072.223.159.437.242.656.111.294.221.59.35.876.1.217.2.429.308.64.137.276.278.547.429.805.119.2.246.4.374.6.161.256.326.505.5.749.139.2.284.388.433.578.183.238.374.465.572.69.159.181.32.36.485.533.2.217.425.425.646.63.111.1.213.221.328.322H20.133Zm38.244,26.185H36.236V94.606H58.377ZM60.39,26.169a2.013,2.013,0,0,0-2.013,2.013V42.445L49.233,33.3a2.013,2.013,0,0,0-2.846,2.846L58.377,48.137v27.52l-8.641-8.641a2.013,2.013,0,0,0-2.846,2.846L58.377,81.349V90.58H46.3A12.089,12.089,0,0,1,34.223,78.5a11.94,11.94,0,0,1,2.643-7.526,2.013,2.013,0,0,0-.317-2.829q-.063-.051-.13-.1a14.09,14.09,0,0,1,0-23.381,2.013,2.013,0,0,0,.542-2.794c-.03-.045-.062-.088-.1-.13a11.94,11.94,0,0,1-2.643-7.526A12.089,12.089,0,0,1,46.3,22.144l.521.028a1.948,1.948,0,0,0,1.669-.779,2,2,0,0,0,.336-1.812,12.105,12.105,0,0,1-.513-3.476,11.89,11.89,0,0,1,.211-2.214.215.215,0,0,1,.012-.087,12.385,12.385,0,0,1,.63-2.128,12.059,12.059,0,0,1,22.447,0,12.393,12.393,0,0,1,.63,2.142.215.215,0,0,0,.012.087,11.889,11.889,0,0,1,.211,2.2,12.105,12.105,0,0,1-.513,3.476,2,2,0,0,0,.336,1.812,1.962,1.962,0,0,0,1.669.779l.521-.028A12.089,12.089,0,0,1,86.557,34.221a11.94,11.94,0,0,1-2.643,7.526,2.013,2.013,0,0,0,.317,2.829q.063.051.13.1a14.09,14.09,0,0,1,0,23.381,2.013,2.013,0,0,0-.542,2.794c.03.045.062.088.1.13A11.94,11.94,0,0,1,86.557,78.5,12.089,12.089,0,0,1,74.48,90.58H62.4V63.095a1.943,1.943,0,0,0,.417-.278L75.9,49.734a2.013,2.013,0,0,0-2.846-2.846L62.4,57.542V28.182A2.013,2.013,0,0,0,60.39,26.169Zm24.154,90.578H62.4V94.606H84.544Zm25.441-45.9c.03.045.062.088.1.13a11.94,11.94,0,0,1,2.643,7.526A12.089,12.089,0,0,1,100.647,90.58H85.12c.115-.1.217-.217.328-.322.221-.2.437-.413.646-.63.165-.173.326-.352.485-.533.2-.225.388-.453.572-.69.149-.189.294-.38.433-.578.175-.244.34-.493.5-.749.129-.2.256-.4.374-.6.151-.266.292-.537.429-.805.1-.211.2-.423.308-.64.129-.286.24-.582.35-.876.083-.219.169-.433.242-.656.1-.314.185-.638.268-.96.054-.213.119-.423.165-.64.079-.364.131-.735.183-1.107.026-.185.064-.366.085-.556a16.046,16.046,0,0,0,.095-1.731,15.875,15.875,0,0,0-2.341-8.351A18.082,18.082,0,0,0,94.56,57.244l7.51-7.51a2.013,2.013,0,0,0-2.846-2.846l-5.155,5.155a18.081,18.081,0,0,0-5.827-9.46,15.876,15.876,0,0,0,2.341-8.361A16.127,16.127,0,0,0,76.352,18.226a15.17,15.17,0,0,0-.06-4.491c-.02-.137-.038-.274-.062-.4a15.84,15.84,0,0,0-.58-2.311.1.1,0,0,0-.014-.06,12.077,12.077,0,0,1,22.48,8.625,2,2,0,0,0,.336,1.812,1.969,1.969,0,0,0,1.669.779l.527-.034a12.089,12.089,0,0,1,12.077,12.077,11.94,11.94,0,0,1-2.643,7.526,2.013,2.013,0,0,0,.317,2.829q.063.051.13.1a14.09,14.09,0,0,1,0,23.381A2.013,2.013,0,0,0,109.986,70.847Z" transform="translate(-0.006 -0.001)" fill="#eaf9f2"/>
      </g>
    </g>
  </g>
</svg>
