<svg id="Group_1562" data-name="Group 1562" xmlns="http://www.w3.org/2000/svg" xmlns:xlink="http://www.w3.org/1999/xlink" width="375" height="46" viewBox="0 0 375 46">
  <defs>
    <clipPath id="clip-path">
      <path id="Shape" d="M338.667-26.667h16.667A2.667,2.667,0,0,1,358-24v6h0a2.667,2.667,0,0,1-2.667,2.667H338.667A2.667,2.667,0,0,1,336-18v-6h0A2.667,2.667,0,0,1,338.667-26.667Z" transform="translate(0 44)" fill="none" clip-rule="evenodd"/>
    </clipPath>
    <clipPath id="clip-path-2">
      <path id="Shape-2" data-name="Shape" d="M359-23v4a2.17,2.17,0,0,0,1.328-2A2.17,2.17,0,0,0,359-23" transform="translate(0 44)" fill="none"/>
    </clipPath>
    <clipPath id="clip-path-3">
      <path id="Shape-3" data-name="Shape" d="M339.333-24.667h15.333A1.333,1.333,0,0,1,356-23.333v4.667h0a1.333,1.333,0,0,1-1.333,1.333H339.333A1.333,1.333,0,0,1,338-18.667v-4.667h0A1.333,1.333,0,0,1,339.333-24.667Z" transform="translate(0 44)" fill="none"/>
    </clipPath>
    <clipPath id="clip-path-4">
      <path id="Shape-4" data-name="Shape" d="M323.33-24.392a8.64,8.64,0,0,1,5.953,2.378.308.308,0,0,0,.433,0l1.156-1.167a.322.322,0,0,0,.093-.229.322.322,0,0,0-.1-.227,10.9,10.9,0,0,0-15.08,0,.322.322,0,0,0-.1.227.322.322,0,0,0,.093.229l1.156,1.167a.308.308,0,0,0,.433,0,8.641,8.641,0,0,1,5.954-2.378Zm0,3.8a4.907,4.907,0,0,1,3.294,1.27.31.31,0,0,0,.433-.006l1.155-1.167a.322.322,0,0,0,.094-.23.322.322,0,0,0-.1-.229,7.159,7.159,0,0,0-9.752,0,.322.322,0,0,0-.1.229.322.322,0,0,0,.094.23l1.154,1.167a.31.31,0,0,0,.433.006,4.907,4.907,0,0,1,3.292-1.27Zm2.219,2.784a.314.314,0,0,0,.094-.231.314.314,0,0,0-.1-.226,3.422,3.422,0,0,0-4.419,0,.314.314,0,0,0-.1.226.314.314,0,0,0,.094.231l2,2.016a.311.311,0,0,0,.222.093.312.312,0,0,0,.222-.093Z" transform="translate(0 44)" fill="none"/>
    </clipPath>
    <clipPath id="clip-path-5">
      <path id="Shape-5" data-name="Shape" d="M294.667-19.667h1a1,1,0,0,1,1,1v2a1,1,0,0,1-1,1h-1a1,1,0,0,1-1-1v-2a1,1,0,0,1,1-1Zm4.667-2h1a1,1,0,0,1,1,1v4a1,1,0,0,1-1,1h-1a1,1,0,0,1-1-1v-4A1,1,0,0,1,299.333-21.667ZM304-24h1a1,1,0,0,1,1,1v6.333a1,1,0,0,1-1,1h-1a1,1,0,0,1-1-1V-23A1,1,0,0,1,304-24Zm4.667-2.333h1a1,1,0,0,1,1,1v8.667a1,1,0,0,1-1,1h-1a1,1,0,0,1-1-1v-8.667a1,1,0,0,1,1-1Z" transform="translate(0 44)" fill="none"/>
    </clipPath>
  </defs>
  <rect id="Rectangle_2039" data-name="Rectangle 2039" width="375" height="46" fill="#fff"/>
  <g id="Group_1049" data-name="Group 1049">
    <g id="status_bar_light" data-name="status bar/light" transform="translate(-13 -80)">
      <g id="Battery" transform="translate(13 80)">
        <g id="Border" clip-path="url(#clip-path)">
          <path id="Fill" d="M2.667,0H19.333A2.667,2.667,0,0,1,22,2.667v6h0a2.667,2.667,0,0,1-2.667,2.667H2.667A2.667,2.667,0,0,1,0,8.667v-6H0A2.667,2.667,0,0,1,2.667,0Z" transform="translate(336 17.333)" fill="none" stroke="rgba(0,0,0,0.35)" stroke-width="2"/>
        </g>
        <g id="Cap" clip-path="url(#clip-path-2)">
          <path id="Fill-2" data-name="Fill" d="M354-28h11.328v14H354Z" transform="translate(0 44)" fill="rgba(0,0,0,0.4)"/>
        </g>
        <g id="Capacity" clip-path="url(#clip-path-3)">
          <path id="Fill-3" data-name="Fill" d="M333-29.667h28v17.333H333Z" transform="translate(0 44)"/>
        </g>
      </g>
      <g id="Wifi" transform="translate(-225 80)">
        <g id="Wifi-2" data-name="Wifi" clip-path="url(#clip-path-4)">
          <path id="Fill-4" data-name="Fill" d="M310.694-31.669h25.272V-10.7H310.694Z" transform="translate(0 44)"/>
        </g>
      </g>
      <g id="Cellular_Connection" data-name="Cellular Connection" transform="translate(-265 80)">
        <g id="Cellular_Connection-2" data-name="Cellular Connection" clip-path="url(#clip-path-5)">
          <path id="Fill-5" data-name="Fill" d="M288.667-31.333h27v20.667h-27Z" transform="translate(0 44)"/>
        </g>
      </g>
    </g>
  </g>
  <rect id="iOS_bottom_bar" data-name="iOS bottom bar" width="134" height="5" rx="2.5" transform="translate(121 23)" fill="#d8d9dd"/>
  <text id="_-Free-" data-name="    -Free-" transform="translate(47 28)" font-size="14" font-family="SFProText-Regular, SF Pro Text" letter-spacing="-0.01em"><tspan x="-28.443" y="0" xml:space="preserve">    -Free-</tspan></text>
  <text id="_10:43" data-name="10:43" transform="translate(304 28)" font-size="14" font-family="SFProText-Regular, SF Pro Text" letter-spacing="-0.01em"><tspan x="-18.365" y="0">10:43</tspan></text>
</svg>
