<svg xmlns="http://www.w3.org/2000/svg" width="115" height="67.419" viewBox="0 0 115 67.419">
  <g id="Group_1718" data-name="Group 1718" transform="translate(-225.367 -573.039)">
    <text id="KM" transform="translate(318.367 620.039)" fill="rgba(234,249,242,0.59)" font-size="16" font-family="SFProText-Bold, SF Pro Text" font-weight="700" letter-spacing="0.031em"><tspan x="-13.26" y="0">KM</tspan></text>
    <g id="Group_1699" data-name="Group 1699" transform="translate(112.367 11.039)">
      <g id="destination_1_" data-name="destination (1)" transform="translate(115.768 563.15)">
        <path id="Path_2670" data-name="Path 2670" d="M17.6,153.9A17.391,17.391,0,0,0,.232,171.273c0,5.947,2.829,12.341,8.408,19a59.888,59.888,0,0,0,8.327,8.191,1.039,1.039,0,0,0,1.272,0,59.888,59.888,0,0,0,8.327-8.191c5.579-6.664,8.408-13.058,8.408-19A17.391,17.391,0,0,0,17.6,153.9Zm6.514,17.371a6.514,6.514,0,1,1-6.514-6.514A6.514,6.514,0,0,1,24.117,171.273Z" transform="translate(-3 -132.606)" fill="#eaf9f2"/>
        <path id="Path_2674" data-name="Path 2674" d="M328.917,0a13.607,13.607,0,0,0-13.591,13.591c0,4.629,2.193,9.595,6.519,14.761a46.306,46.306,0,0,0,6.437,6.331,1.039,1.039,0,0,0,1.272,0,46.294,46.294,0,0,0,6.437-6.331c4.325-5.166,6.519-10.132,6.519-14.761A13.607,13.607,0,0,0,328.917,0Zm5.007,13.591a5.007,5.007,0,1,1-5.007-5.006A5.007,5.007,0,0,1,333.924,13.591Z" transform="translate(-280.492 -1)" fill="#eaf9f2"/>
        <path id="Path_2677" data-name="Path 2677" d="M235.724,271.684a1.04,1.04,0,0,1,0-2.078l1.327-.006h0a1.04,1.04,0,0,1,0,2.078l-1.327.006Zm5.308-.025a1.04,1.04,0,0,1,0-2.078l1.327-.006h0a1.04,1.04,0,0,1,0,2.078l-1.327.006Zm5.309-.025a1.04,1.04,0,0,1,0-2.078l1.327-.006h0a1.04,1.04,0,0,1,0,2.078l-1.327.006Zm5.309-.025a1.04,1.04,0,0,1,0-2.078l1.327-.006h0a1.04,1.04,0,0,1,0,2.078l-1.327.006Zm5.308-.025a1.04,1.04,0,0,1,0-2.078l1.327-.006h0a1.04,1.04,0,0,1,0,2.078l-1.327.006Zm5.309-.025a1.04,1.04,0,0,1,0-2.078h.188a7.336,7.336,0,0,0,1-.073,1.011,1.011,0,0,1,1.133.887,1.034,1.034,0,0,1-.858,1.171,9.308,9.308,0,0,1-1.268.093h-.193Zm5-1.565a.994.994,0,0,1-.827-.447,1.062,1.062,0,0,1,.253-1.446,7.622,7.622,0,0,0,.907-.764.982.982,0,0,1,1.421.035,1.064,1.064,0,0,1-.034,1.469,9.656,9.656,0,0,1-1.148.968A.978.978,0,0,1,267.265,269.995Zm3.178-4.284a.974.974,0,0,1-.338-.061,1.049,1.049,0,0,1-.609-1.327,7.951,7.951,0,0,0,.305-1.166,1.008,1.008,0,0,1,1.173-.829,1.037,1.037,0,0,1,.8,1.213,10.1,10.1,0,0,1-.387,1.48A1.007,1.007,0,0,1,270.443,265.71Zm.163-5.4a1.01,1.01,0,0,1-.965-.753,7.89,7.89,0,0,0-.41-1.132,1.054,1.054,0,0,1,.486-1.381.991.991,0,0,1,1.336.5,10.014,10.014,0,0,1,.52,1.437,1.044,1.044,0,0,1-.689,1.285A.975.975,0,0,1,270.606,260.314Zm-2.914-4.482a.98.98,0,0,1-.622-.223,7.541,7.541,0,0,0-.971-.673,1.058,1.058,0,0,1-.382-1.415.987.987,0,0,1,1.369-.4,9.574,9.574,0,0,1,1.23.853,1.063,1.063,0,0,1,.166,1.459A.99.99,0,0,1,267.691,255.832Zm-4.891-1.883h-.045q-.168-.008-.339-.008h-.944a1.04,1.04,0,0,1,0-2.078h.944c.142,0,.286,0,.428.01a1.04,1.04,0,0,1-.044,2.077Zm-5.309-.009h-1.327a1.04,1.04,0,0,1,0-2.078h1.327a1.04,1.04,0,0,1,0,2.078Zm-5.309,0h-1.327a1.04,1.04,0,0,1,0-2.078h1.327a1.04,1.04,0,0,1,0,2.078Zm-5.309,0h-1.327a1.04,1.04,0,0,1,0-2.078h1.327a1.04,1.04,0,0,1,0,2.078Zm-5.119-1.033a.976.976,0,0,1-.535-.16,7.6,7.6,0,0,1-1.2-.974,1.064,1.064,0,0,1-.028-1.469.982.982,0,0,1,1.421-.029,5.561,5.561,0,0,0,.882.714,1.06,1.06,0,0,1,.314,1.433A1,1,0,0,1,241.755,252.907Zm-2.92-4.4a1.014,1.014,0,0,1-.985-.84,8.08,8.08,0,0,1-.139-1.493v-.082a1.022,1.022,0,0,1,1-1.027h.012a1.023,1.023,0,0,1,.993,1.051v.058a5.93,5.93,0,0,0,.1,1.1,1.038,1.038,0,0,1-.794,1.218A.973.973,0,0,1,238.834,248.506Zm1.1-5.214a.978.978,0,0,1-.585-.2,1.062,1.062,0,0,1-.23-1.45,7.735,7.735,0,0,1,1.013-1.183.982.982,0,0,1,1.42.059,1.064,1.064,0,0,1-.057,1.468,5.68,5.68,0,0,0-.743.868A.994.994,0,0,1,239.932,243.291Zm4.423-2.749a1.017,1.017,0,0,1-.995-.9,1.033,1.033,0,0,1,.863-1.167,7.36,7.36,0,0,1,1-.068h.459a1.04,1.04,0,0,1,0,2.078h-.459a5.4,5.4,0,0,0-.733.05A.933.933,0,0,1,244.356,240.542Z" transform="translate(-200.781 -205.415)" fill="#eaf9f2"/>
      </g>
      <path id="Path_2678" data-name="Path 2678" d="M235.724,271.684a1.04,1.04,0,0,1,0-2.078l1.327-.006h0a1.04,1.04,0,0,1,0,2.078Z" transform="translate(-90.013 357.735)" fill="#eaf9f2"/>
      <path id="Path_2679" data-name="Path 2679" d="M235.724,271.684a1.04,1.04,0,0,1,0-2.078l1.327-.006h0a1.04,1.04,0,0,1,0,2.078Z" transform="translate(-95.013 357.735)" fill="#eaf9f2"/>
      <path id="Path_2680" data-name="Path 2680" d="M235.724,271.684a1.04,1.04,0,0,1,0-2.078l1.327-.006h0a1.04,1.04,0,0,1,0,2.078Z" transform="translate(-100.013 357.735)" fill="#eaf9f2"/>
    </g>
    <text id="O.0" transform="translate(320.367 602.039)" fill="#eaf9f2" font-size="40" font-family="DINCondensed-Bold, DIN Condensed" font-weight="700" letter-spacing="-0.01em"><tspan x="-19.28" y="0">O.0</tspan></text>
  </g>
</svg>
