<svg xmlns="http://www.w3.org/2000/svg" width="46.645" height="35.058" viewBox="0 0 46.645 35.058">
  <g id="Group_1555" data-name="Group 1555" transform="translate(-123 287.846)">
    <g id="_1" data-name="1" transform="translate(123 -287.846)">
      <g id="Group_1552" data-name="Group 1552" transform="translate(16.594 0)">
        <path id="Path_2547" data-name="Path 2547" d="M163.458,46.613c-3.179,1.274-9.009,7.1-14.553,13.781-6.769,4.947-11.319,14.59-13.975,20.853-.195-.772-.367-1.512-.523-2.224-.184-.821-.335-1.609-.464-2.353-.961-5.522-.567-9.074.7-12.086a27.172,27.172,0,0,1,3.482-5.668C142.422,53.15,157.18,46,163.458,46.613Z" transform="translate(-133.407 -46.576)" fill="#eaf9f2"/>
        <path id="Path_2548" data-name="Path 2548" d="M185.151,46.87c-11.266,9.22.673,29.834-26.97,35.021,3.033-6.03,6.776-13.715,12.384-21.2.011-.016.022-.027.032-.043C176.142,53.973,181.972,48.144,185.151,46.87Z" transform="translate(-155.099 -46.833)" fill="#aad15d"/>
        <path id="Path_2549" data-name="Path 2549" d="M185.151,46.87c-11.266,9.22.673,29.834-26.97,35.021,3.033-6.03,6.776-13.715,12.384-21.2.011-.016.022-.027.032-.043C176.142,53.973,181.972,48.144,185.151,46.87Z" transform="translate(-155.099 -46.833)" fill="#eaf9f2"/>
      </g>
      <g id="Group_1553" data-name="Group 1553" transform="translate(0 4.155)">
        <path id="Path_2550" data-name="Path 2550" d="M16.209,93.833c-1.263,3.012-1.657,6.564-.7,12.086.13.745.281,1.533.464,2.353-8.027-1.1-10.191-3.59-12.836-7.611C.226,96.224-1.021,84.187.981,79.981,3.324,86.648,11.707,87.917,16.209,93.833Z" transform="translate(-0.003 -79.981)" fill="#eaf9f2"/>
        <path id="Path_2551" data-name="Path 2551" d="M22.395,105.924C16.786,99.69,8.02,84.683,7.863,79.987c2.342,6.667,10.726,7.935,15.228,13.851C21.828,96.85,21.434,100.4,22.395,105.924Z" transform="translate(-6.886 -79.986)" fill="#eaf9f2"/>
      </g>
    </g>
  </g>
</svg>
