<svg xmlns="http://www.w3.org/2000/svg" width="30.049" height="28.583" viewBox="0 0 30.049 28.583">
  <g id="reply" transform="translate(-0.479 -26.897) rotate(-1)">
    <path id="Path_2558" data-name="Path 2558" d="M28.689,39.345Q26.016,32.7,14.254,32.7h-3.7V28.473a1.05,1.05,0,0,0-1.8-.743L.313,36.177a1.036,1.036,0,0,0,0,1.485L8.76,46.109a1.056,1.056,0,0,0,1.8-.742V41.143h3.7q1.616,0,2.895.1a20.871,20.871,0,0,1,2.541.355,9.429,9.429,0,0,1,2.195.7,7.767,7.767,0,0,1,1.741,1.147,5.748,5.748,0,0,1,1.32,1.666,8.978,8.978,0,0,1,.8,2.285,14.053,14.053,0,0,1,.289,2.986q0,.907-.083,2.029a3.38,3.38,0,0,1-.041.388c-.027.193-.058,1.3-.058,1.4a5.3,5.3,0,0,0,.094,1.238c.094.11-.133,0,.032,0s.456-.882.588-1.069c.077-.1.441-1.058.507-1.2s.14-.308.223-.495.14-.319.173-.4a19.807,19.807,0,0,0,2.1-7.44A15.02,15.02,0,0,0,28.689,39.345Z" transform="translate(0 0)" fill="#21d68c"/>
  </g>
</svg>
