<svg xmlns="http://www.w3.org/2000/svg" width="46.645" height="405.212" viewBox="0 0 46.645 405.212">
  <g id="Group_1723" data-name="Group 1723" transform="translate(-164 -20.788)">
    <g id="loading" transform="translate(167 378.5)">
      <path id="XMLID_28_" d="M151.909,7.5A1.907,1.907,0,0,0,150,9.4v7.619a1.909,1.909,0,0,0,3.818,0V9.4A1.907,1.907,0,0,0,151.909,7.5Z" transform="translate(-130.909 0)" fill="#eaf9f2"/>
      <path id="XMLID_29_" d="M151.909,262.5A1.907,1.907,0,0,0,150,264.4v3.81a1.909,1.909,0,0,0,3.818,0V264.4A1.907,1.907,0,0,0,151.909,262.5Z" transform="translate(-130.909 -222.619)" fill="#eaf9f2"/>
      <path id="XMLID_30_" d="M249.545,157.5h-7.636a1.9,1.9,0,1,0,0,3.81h7.636a1.9,1.9,0,1,0,0-3.81Z" transform="translate(-209.455 -130.952)" fill="#eaf9f2"/>
      <path id="XMLID_31_" d="M11.455,159.4a1.907,1.907,0,0,0-1.909-1.9H1.909a1.9,1.9,0,1,0,0,3.81H9.545A1.907,1.907,0,0,0,11.455,159.4Z" transform="translate(0 -130.952)" fill="#eaf9f2"/>
      <path id="XMLID_71_" d="M222.3,51.991a1.912,1.912,0,0,0-2.7,0l-5.4,5.388a1.907,1.907,0,0,0,2.7,2.694l5.4-5.388A1.9,1.9,0,0,0,222.3,51.991Z" transform="translate(-186.449 -38.355)" fill="#eaf9f2"/>
      <path id="XMLID_85_" d="M49.894,221.7l-5.4,5.388a1.907,1.907,0,0,0,2.7,2.694l5.4-5.388a1.907,1.907,0,1,0-2.7-2.694Z" transform="translate(-38.343 -186.511)" fill="#eaf9f2"/>
      <path id="XMLID_86_" d="M47.194,51.992a1.907,1.907,0,0,0-2.7,2.694l5.4,5.388a1.907,1.907,0,1,0,2.7-2.694Z" transform="translate(-38.343 -38.355)" fill="#eaf9f2"/>
    </g>
    <g id="Group_1555" data-name="Group 1555" transform="translate(41 308.634)">
      <g id="_1" data-name="1" transform="translate(123 -287.846)">
        <g id="Group_1552" data-name="Group 1552" transform="translate(16.594 0)">
          <path id="Path_2547" data-name="Path 2547" d="M163.458,46.613c-3.179,1.274-9.009,7.1-14.553,13.781-6.769,4.947-11.319,14.59-13.975,20.853-.195-.772-.367-1.512-.523-2.224-.184-.821-.335-1.609-.464-2.353-.961-5.522-.567-9.074.7-12.086a27.172,27.172,0,0,1,3.482-5.668C142.422,53.15,157.18,46,163.458,46.613Z" transform="translate(-133.407 -46.576)" fill="#eaf9f2"/>
          <path id="Path_2548" data-name="Path 2548" d="M185.151,46.87c-11.266,9.22.673,29.834-26.97,35.021,3.033-6.03,6.776-13.715,12.384-21.2.011-.016.022-.027.032-.043C176.142,53.973,181.972,48.144,185.151,46.87Z" transform="translate(-155.099 -46.833)" fill="#aad15d"/>
          <path id="Path_2549" data-name="Path 2549" d="M185.151,46.87c-11.266,9.22.673,29.834-26.97,35.021,3.033-6.03,6.776-13.715,12.384-21.2.011-.016.022-.027.032-.043C176.142,53.973,181.972,48.144,185.151,46.87Z" transform="translate(-155.099 -46.833)" fill="#eaf9f2"/>
        </g>
        <g id="Group_1553" data-name="Group 1553" transform="translate(0 4.155)">
          <path id="Path_2550" data-name="Path 2550" d="M16.209,93.833c-1.263,3.012-1.657,6.564-.7,12.086.13.745.281,1.533.464,2.353-8.027-1.1-10.191-3.59-12.836-7.611C.226,96.224-1.021,84.187.981,79.981,3.324,86.648,11.707,87.917,16.209,93.833Z" transform="translate(-0.003 -79.981)" fill="#eaf9f2"/>
          <path id="Path_2551" data-name="Path 2551" d="M22.395,105.924C16.786,99.69,8.02,84.683,7.863,79.987c2.342,6.667,10.726,7.935,15.228,13.851C21.828,96.85,21.434,100.4,22.395,105.924Z" transform="translate(-6.886 -79.986)" fill="#eaf9f2"/>
        </g>
      </g>
    </g>
  </g>
</svg>
