<svg xmlns="http://www.w3.org/2000/svg" width="337" height="207.828" viewBox="0 0 337 207.828">
  <g id="Group_1700" data-name="Group 1700" transform="translate(-19.4 -301.926)">
    <g id="Group_1554" data-name="Group 1554" transform="translate(0 589.772)">
      <g id="_1" data-name="1" transform="translate(123 -287.846)">
        <g id="Group_1552" data-name="Group 1552" transform="translate(45.874 0)">
          <path id="Path_2547" data-name="Path 2547" d="M216.486,46.677c-8.789,3.522-24.906,19.639-40.234,38.1-18.715,13.675-31.294,40.337-38.636,57.649-.538-2.134-1.016-4.179-1.447-6.148-.508-2.269-.925-4.447-1.284-6.506-2.656-15.267-1.568-25.086,1.924-33.413,2.3-5.477,5.642-10.326,9.625-15.67C158.33,64.751,199.13,44.993,216.486,46.677Z" transform="translate(-133.407 -46.576)" fill="#95f0cb"/>
          <path id="Path_2548" data-name="Path 2548" d="M232.741,46.87c-31.145,25.489,1.862,82.479-74.56,96.819,8.386-16.669,18.733-37.917,34.238-58.6.03-.044.06-.075.089-.119C207.835,66.509,223.952,50.392,232.741,46.87Z" transform="translate(-149.662 -46.769)" fill="#aad15d"/>
          <path id="Path_2549" data-name="Path 2549" d="M232.741,46.87c-31.145,25.489,1.862,82.479-74.56,96.819,8.386-16.669,18.733-37.917,34.238-58.6.03-.044.06-.075.089-.119C207.835,66.509,223.952,50.392,232.741,46.87Z" transform="translate(-149.662 -46.769)" fill="#21d68c"/>
        </g>
        <g id="Group_1553" data-name="Group 1553" transform="translate(0 11.487)">
          <path id="Path_2550" data-name="Path 2550" d="M44.8,118.275c-3.492,8.328-4.582,18.146-1.924,33.413.359,2.059.776,4.237,1.284,6.506-22.19-3.028-28.175-9.924-35.487-21.042C.619,124.886-2.829,91.607,2.706,79.981,9.182,98.412,32.358,101.92,44.8,118.275Z" transform="translate(-0.003 -79.981)" fill="#95f0cb"/>
          <path id="Path_2551" data-name="Path 2551" d="M48.037,151.692C32.532,134.456,8.3,92.969,7.863,79.987c6.476,18.43,29.652,21.936,42.1,38.294C46.469,126.606,45.381,136.425,48.037,151.692Z" transform="translate(-5.16 -79.985)" fill="#21d68c"/>
        </g>
      </g>
    </g>
    <text id="be_Eco" data-name="be Eco" transform="translate(19.4 486.754)" fill="#21d68c" font-size="92" font-family="Dreamscape"><tspan x="0" y="0">b</tspan><tspan y="0" font-family="DreamscapeSans, Dreamscape Sans">e </tspan><tspan y="0">E</tspan><tspan y="0" font-family="DreamscapeSans, Dreamscape Sans">c</tspan><tspan y="0">o</tspan></text>
  </g>
</svg>
