<svg xmlns="http://www.w3.org/2000/svg" width="121.734" height="82.145" viewBox="0 0 121.734 82.145">
  <g id="Group_1717" data-name="Group 1717" transform="translate(-29.633 -565.855)">
    <text id="PAS" transform="translate(131.367 622.039)" fill="rgba(234,249,242,0.59)" font-size="16" font-family="SFProText-Bold, SF Pro Text" font-weight="700" letter-spacing="0.031em"><tspan x="-16.758" y="0">PAS</tspan></text>
    <g id="icon_3_" data-name="icon (3)" transform="matrix(0.326, 0.946, -0.946, 0.326, 83.702, 565.559)">
      <path id="Path_2668" data-name="Path 2668" d="M58.9,24.133c-8.791,7.892-15.358,10.154-21.93,16.047-4.66,4.185-2.807,6.155-9.389,12.063-6.488,5.822-9.673,4.887-9.673,4.887s-5.187-2.276-6.2-6.633c0,0,2.909.761,8.841-4.565,2.188-1.957,6.235-2.455,8.4-4.045,2.72-2,4.947-4.031,5.484-4.513,1.045-.936,7.53-4.171,13.7-8.256,1.7-1.122.65-3.849,2.646-5.643s6.388-1.035,7.825-2.325C71.361,9.71,64.17,2.25,64.17,2.25S74.444,10.192,58.9,24.133ZM18.51,44.1c1.827-1.638,5.735-2.356,7.8-3.847a55,55,0,0,0,5.761-4.475c3.112-2.793,8.054-5.177,13.391-8.464,1.5-.929,1.464-4.943,3-6.044,1.6-1.151,7.185-1.557,8.755-2.965C67.5,9.081,61.99,1.416,61.99,1.416S56.961-1.2,49.5,5.492a12.58,12.58,0,0,1-1.856,1.356l.782,2.769a1.154,1.154,0,0,1-.879,1.415,1.243,1.243,0,0,1-1.506-.825l-.621-2.2c-.637.291-1.316.565-2.017.825l.74,2.621a1.148,1.148,0,0,1-.879,1.408,1.243,1.243,0,0,1-1.511-.82l-.687-2.42c-.679.208-1.372.406-2.085.593l.732,2.585a1.148,1.148,0,0,1-.879,1.413,1.239,1.239,0,0,1-1.506-.822L36.593,10.8c-.721.165-1.453.319-2.191.463l.716,2.526a1.151,1.151,0,0,1-.877,1.413,1.25,1.25,0,0,1-1.514-.825l-.756-2.663c-.719.123-1.43.241-2.141.345l.685,2.417a1.15,1.15,0,0,1-.879,1.413,1.251,1.251,0,0,1-1.509-.822l-.753-2.658c-.761.1-1.5.194-2.214.279l.7,2.481a1.15,1.15,0,0,1-.877,1.411,1.24,1.24,0,0,1-1.509-.82l-.79-2.8c-3.655.362-6.309.491-6.819.494-5.716.095-4.515,6.576.887,6.567,0,2.521-.234,5.721-2.478,7.734C6.027,35.161,1.606,29.1.514,32.283c-1.259,3.651-.2,4.865,3.112,8.2A84.667,84.667,0,0,1,9.479,48S11.949,49.989,18.51,44.1Z" transform="translate(0 0)" fill="#eaf9f2"/>
    </g>
    <text id="O.0" transform="translate(131.367 602.039)" fill="#eaf9f2" font-size="40" font-family="DINCondensed-Bold, DIN Condensed" font-weight="700" letter-spacing="-0.01em"><tspan x="-19.28" y="0">O.0</tspan></text>
  </g>
</svg>
