<svg xmlns="http://www.w3.org/2000/svg" width="33.583" height="56.014" viewBox="0 0 33.583 56.014">
  <g id="location-pointer" transform="translate(-15)">
    <g id="Group_1267" data-name="Group 1267" transform="translate(15)">
      <path id="Path_2237" data-name="Path 2237" d="M31.791,0C22.517,0,15,7.838,15,17.5c0,16.713,16.791,38.509,16.791,38.509S48.583,34.217,48.583,17.5C48.583,7.838,41.065,0,31.791,0Zm0,27.167a9.265,9.265,0,0,1-9.067-9.452,9.265,9.265,0,0,1,9.067-9.452,9.266,9.266,0,0,1,9.067,9.452A9.266,9.266,0,0,1,31.791,27.167Z" transform="translate(-15 0)" fill="#3a3768"/>
    </g>
  </g>
</svg>
