<svg xmlns="http://www.w3.org/2000/svg" xmlns:xlink="http://www.w3.org/1999/xlink" width="333" height="169.427" viewBox="0 0 333 169.427">
  <defs>
    <linearGradient id="linear-gradient" x1="0.5" x2="0.5" y2="1" gradientUnits="objectBoundingBox">
      <stop offset="0" stop-color="#22d78c"/>
      <stop offset="1" stop-color="#0ebca4"/>
    </linearGradient>
    <filter id="Rectangle_2069" x="0" y="0" width="333" height="169.427" filterUnits="userSpaceOnUse">
      <feOffset dy="3" input="SourceAlpha"/>
      <feGaussianBlur stdDeviation="3" result="blur"/>
      <feFlood flood-opacity="0.161"/>
      <feComposite operator="in" in2="blur"/>
      <feComposite in="SourceGraphic"/>
    </filter>
  </defs>
  <g id="Group_1728" data-name="Group 1728" transform="translate(-20 -339)">
    <g transform="matrix(1, 0, 0, 1, 20, 339)" filter="url(#Rectangle_2069)">
      <rect id="Rectangle_2069-2" data-name="Rectangle 2069" width="315" height="151.427" rx="7" transform="translate(9 6)" fill="url(#linear-gradient)"/>
    </g>
    <g id="sun-umbrella_1_" data-name="sun-umbrella (1)" transform="translate(86 336.374)">
      <path id="Path_2598" data-name="Path 2598" d="M255.231,235.93l21.109-52.962a4.32,4.32,0,1,1,8.025,3.2l-20.159,50.579Z" transform="translate(-194.41 -114.34)" fill="none"/>
      <path id="Path_2599" data-name="Path 2599" d="M290.147,220.455l.006-.015h-.006Z" transform="translate(-221.006 -144.956)" fill="#eaf9f2"/>
      <path id="Path_2600" data-name="Path 2600" d="M331.756,180.554a4.32,4.32,0,0,0-5.612,2.413l-5.528,13.868a20.023,20.023,0,0,1,8.027,3.194l5.526-13.864A4.32,4.32,0,0,0,331.756,180.554Z" transform="translate(-244.215 -114.34)" fill="none" opacity="0.1"/>
      <path id="Path_2601" data-name="Path 2601" d="M316.192,101.064l-15.928,1.712-10.116,11.782,0,14.951.007,0,0,.005a26.321,26.321,0,0,1,25.317,10.042l.046.084,8.321-8.239.928-20.558Z" transform="translate(-221.006 -54.027)" fill="none"/>
      <path id="Path_2602" data-name="Path 2602" d="M149.8,401.594c-5.8-9.265-25.428-16.083-48.753-16.083S58.1,392.329,52.3,401.593h3.257l7.067,4.532,7.431.808,5.237-3.026,8.313-3.032,4.461,1.212,9.49,4.846,6.26-1.01,8.077-3.013,5.856-1.833,7.471,1.833,6.058,4.023,9.692-1.212Z" transform="translate(-39.836 -270.691)" fill="none"/>
      <path id="Path_2603" data-name="Path 2603" d="M248.327,405.4l8.155-3.811c-5.8-9.265-25.428-16.083-48.753-16.083a113.147,113.147,0,0,0-15.379,1.029C216.412,389.3,236.537,396.218,248.327,405.4Z" transform="translate(-146.513 -270.69)" fill="none" opacity="0.1"/>
      <path id="Path_2604" data-name="Path 2604" d="M122.657,447.866a16.715,16.715,0,0,0-18.858,0,13.147,13.147,0,0,1-14.833,0,16.715,16.715,0,0,0-18.858,0,13.147,13.147,0,0,1-14.833,0,16.715,16.715,0,0,0-18.858,0,13.147,13.147,0,0,1-14.833,0,16.715,16.715,0,0,0-18.858,0,1.793,1.793,0,0,0,2.013,2.969,13.147,13.147,0,0,1,14.833,0,16.716,16.716,0,0,0,18.858,0,13.147,13.147,0,0,1,14.833,0,16.716,16.716,0,0,0,18.858,0,13.147,13.147,0,0,1,14.833,0,16.716,16.716,0,0,0,18.859,0,13.147,13.147,0,0,1,14.833,0,1.793,1.793,0,1,0,2.013-2.969Z" transform="translate(-1.476 -315.967)" fill="#eaf9f2"/>
      <g id="Group_1625" data-name="Group 1625" transform="translate(43.768 44.247)">
        <path id="Path_2605" data-name="Path 2605" d="M209.046,120.59a26.321,26.321,0,0,0-25.375-10.11S205.114,80.2,235.088,92.145c0,0-15.719,4.2-26.044,28.462Z" transform="translate(-183.671 -89.355)" fill="none"/>
        <path id="Path_2606" data-name="Path 2606" d="M396.62,139.622a26.321,26.321,0,0,1,25.372,10.116s5.265-36.73-24.709-48.677c0,0,8.517,13.864-.674,38.574Z" transform="translate(-345.866 -98.272)" fill="none"/>
      </g>
      <circle id="Ellipse_411" data-name="Ellipse 411" cx="9.769" cy="9.769" r="9.769" transform="translate(10.678 40.774)" fill="none"/>
      <path id="Path_2607" data-name="Path 2607" d="M37.114,78.813A11.563,11.563,0,1,0,48.677,67.25,11.576,11.576,0,0,0,37.114,78.813Zm11.563-7.976A7.976,7.976,0,1,1,40.7,78.813,7.985,7.985,0,0,1,48.677,70.837Z" transform="translate(-28.27 -28.271)" fill="#eaf9f2"/>
      <path id="Path_2608" data-name="Path 2608" d="M81.7,35.536V31.928a1.793,1.793,0,0,0-3.586,0v3.607a1.793,1.793,0,0,0,3.586,0Z" transform="translate(-59.498 0)" fill="#eaf9f2"/>
      <path id="Path_2609" data-name="Path 2609" d="M125.717,53.538l-2.551,2.551a1.793,1.793,0,0,0,2.536,2.536l2.551-2.551a1.793,1.793,0,1,0-2.536-2.536Z" transform="translate(-93.416 -17.426)" fill="#eaf9f2"/>
      <path id="Path_2610" data-name="Path 2610" d="M146.487,111.833a1.793,1.793,0,0,0,0-3.586H142.88a1.793,1.793,0,0,0,0,3.586Z" transform="translate(-107.466 -59.498)" fill="#eaf9f2"/>
      <path id="Path_2611" data-name="Path 2611" d="M123.166,153.3a1.793,1.793,0,0,0,0,2.536l2.551,2.551a1.793,1.793,0,0,0,2.536-2.536L125.7,153.3A1.794,1.794,0,0,0,123.166,153.3Z" transform="translate(-93.416 -93.417)" fill="#eaf9f2"/>
      <path id="Path_2612" data-name="Path 2612" d="M78.112,173.015v3.607a1.793,1.793,0,1,0,3.586,0v-3.607a1.793,1.793,0,0,0-3.586,0Z" transform="translate(-59.498 -107.466)" fill="#eaf9f2"/>
      <path id="Path_2613" data-name="Path 2613" d="M23.4,158.389a1.794,1.794,0,0,0,2.536,0l2.551-2.551a1.793,1.793,0,0,0-2.536-2.536l-2.551,2.55A1.793,1.793,0,0,0,23.4,158.389Z" transform="translate(-17.426 -93.417)" fill="#eaf9f2"/>
      <path id="Path_2614" data-name="Path 2614" d="M1.793,111.833H5.4a1.793,1.793,0,0,0,0-3.586H1.793a1.793,1.793,0,0,0,0,3.586Z" transform="translate(0 -59.498)" fill="#eaf9f2"/>
      <path id="Path_2615" data-name="Path 2615" d="M25.939,53.538A1.793,1.793,0,0,0,23.4,56.074l2.551,2.551a1.793,1.793,0,0,0,2.536-2.536Z" transform="translate(-17.426 -17.426)" fill="#eaf9f2"/>
      <path id="Path_2616" data-name="Path 2616" d="M94.306,126a1.837,1.837,0,0,0,1.94.784,24.535,24.535,0,0,1,23.5,9.424,1.793,1.793,0,0,0,3.226-.8,61.717,61.717,0,0,0-2.079-24.06,1.793,1.793,0,1,0-3.434,1.033,58.919,58.919,0,0,1,2.262,18.353,28.53,28.53,0,0,0-21.25-7.832c.031-.093.058-.183.088-.275a67,67,0,0,0,2.96-13.171,51.6,51.6,0,0,0,0-12.333,38.841,38.841,0,0,0-1.537-7l-.016-.051A34.733,34.733,0,0,1,114.708,105.4a1.793,1.793,0,1,0,3.206-1.608A38.484,38.484,0,0,0,97.155,84.813c-12.827-5.112-26.177-3.43-38.606,4.863a61.964,61.964,0,0,0-14.937,14.1,1.793,1.793,0,0,0,1.791,2.8,24.541,24.541,0,0,1,23.489,9.254,1.861,1.861,0,0,0,2.067.829,22.7,22.7,0,0,1,6.976-.13L63.608,152.479c-.361,0-.722-.01-1.084-.01a108.629,108.629,0,0,0-23.477,2.447,1.793,1.793,0,0,0,.778,3.5,106.534,106.534,0,0,1,22.7-2.362c3.74,0,7.483.178,11.205.548l.04,0A88.077,88.077,0,0,1,92.9,160.53c6.836,2.289,12.113,5.306,15.211,8.65a16.937,16.937,0,0,0-4.484,2.161,13.147,13.147,0,0,1-14.832,0,16.715,16.715,0,0,0-18.859,0,13.147,13.147,0,0,1-14.832,0,16.715,16.715,0,0,0-18.859,0,13.147,13.147,0,0,1-14.832,0,16.925,16.925,0,0,0-4.484-2.161c3.093-3.339,8.361-6.352,15.184-8.64a1.793,1.793,0,0,0-1.14-3.4c-8.57,2.874-14.791,6.771-18.09,11.316a16.753,16.753,0,0,0-10.328,2.887,1.793,1.793,0,0,0,2.013,2.968,13.166,13.166,0,0,1,8.822-2.215,1.761,1.761,0,0,0,.33.041A13.23,13.23,0,0,1,19.4,174.31a16.715,16.715,0,0,0,18.858,0,13.147,13.147,0,0,1,14.832,0,16.715,16.715,0,0,0,18.858,0,13.147,13.147,0,0,1,14.832,0,16.715,16.715,0,0,0,18.859,0,13.231,13.231,0,0,1,5.668-2.172,1.775,1.775,0,0,0,.351-.044,13.165,13.165,0,0,1,8.814,2.216,1.793,1.793,0,0,0,2.013-2.968,16.75,16.75,0,0,0-10.328-2.887c-3.3-4.55-9.534-8.45-18.118-11.325a89.651,89.651,0,0,0-17.6-3.837l12.848-32.235A22.724,22.724,0,0,1,94.306,126ZM73.393,112.774l.058-.121a64.462,64.462,0,0,1,5.892-10.018,1.793,1.793,0,1,0-2.906-2.1,66.815,66.815,0,0,0-4.9,7.942c-.526.994-1.06,2-1.511,3.031l-.024.05a28.534,28.534,0,0,0-20.816-8.933A60.408,60.408,0,0,1,60.631,92.6,42,42,0,0,1,76.2,86.057a34.417,34.417,0,0,1,15.31.651l-.063.035a39.614,39.614,0,0,0-7.628,5.5c-.9.826-1.787,1.675-2.632,2.562a1.793,1.793,0,1,0,2.6,2.475,40.823,40.823,0,0,1,7.728-6.4,28.354,28.354,0,0,1,4.092-2.163,27.716,27.716,0,0,1,1.317,3.748c2.162,7.79,1.578,16.2-.317,23.975q-.612,2.509-1.413,4.968l-.017.051a27.633,27.633,0,0,0-8.829-6.207l-.139-.062A28.062,28.062,0,0,0,73.393,112.774Zm12.8,6.381L72.738,152.907q-1.247-.108-2.51-.188c-.931-.064-1.863-.111-2.795-.149L81.5,117.284a25.174,25.174,0,0,1,2.51.866C84.139,118.2,86.194,119.145,86.19,119.155Z" transform="translate(-1.35 -39.443)" fill="#eaf9f2"/>
    </g>
  </g>
</svg>
