<svg xmlns="http://www.w3.org/2000/svg" width="16.855" height="22.985" viewBox="0 0 16.855 22.985">
  <g id="waste-bin" transform="translate(-35.797)">
    <path id="Path_2583" data-name="Path 2583" d="M38.136,21.425a2.087,2.087,0,0,0,2.1,1.56h7.968a2.087,2.087,0,0,0,2.1-1.56l1.573-15.3H36.563Zm9.153-13a.766.766,0,0,1,1.532,0L48.055,19.92a.766.766,0,0,1-1.532,0Zm-3.831,0a.766.766,0,0,1,1.532,0V19.92a.766.766,0,1,1-1.532,0V8.428Zm-3.065-.766a.766.766,0,0,1,.766.766l.766,11.492a.766.766,0,0,1-1.532,0L39.628,8.428A.766.766,0,0,1,40.394,7.662Zm11.033-4.6H48.055V1.532C48.055.37,47.68,0,46.523,0h-4.6a1.34,1.34,0,0,0-1.532,1.532V3.066H37.023A1.189,1.189,0,0,0,35.8,4.216a1.189,1.189,0,0,0,1.226,1.15h14.4a1.189,1.189,0,0,0,1.226-1.15A1.189,1.189,0,0,0,51.427,3.066Zm-4.9,0h-4.6V1.532h4.6V3.066Z" fill="#d0d0d2" fill-rule="evenodd"/>
  </g>
</svg>
