<svg xmlns="http://www.w3.org/2000/svg" xmlns:xlink="http://www.w3.org/1999/xlink" width="32" height="32" viewBox="0 0 32 32">
  <defs>
    <clipPath id="clip-path">
      <rect id="Rectangle_2041" data-name="Rectangle 2041" width="32" height="32" transform="translate(300 748)" fill="#21d68c" stroke="#707070" stroke-width="1"/>
    </clipPath>
  </defs>
  <g id="Mask_Group_5" data-name="Mask Group 5" transform="translate(-300 -748)" clip-path="url(#clip-path)">
    <g id="gift_1_" data-name="gift (1)" transform="translate(300 749.02)">
      <g id="Group_1563" data-name="Group 1563" transform="translate(0 0)">
        <path id="Path_2553" data-name="Path 2553" d="M30,9.363H23.672a7.771,7.771,0,0,0,1.116-.894,4.184,4.184,0,0,0,0-5.884,4.228,4.228,0,0,0-5.866,0c-.866.87-3.168,4.412-2.85,6.778h-.144c.316-2.366-1.984-5.908-2.85-6.778a4.228,4.228,0,0,0-5.866,0,4.186,4.186,0,0,0,0,5.884,7.915,7.915,0,0,0,1.118.894H2a2,2,0,0,0-2,2v5a1,1,0,0,0,1,1H2v12a2,2,0,0,0,2,2H28a2,2,0,0,0,2-2v-12h1a1,1,0,0,0,1-1v-5A2,2,0,0,0,30,9.363ZM8.63,3.995a2.132,2.132,0,0,1,3.03,0c1.348,1.356,2.688,4.82,2.222,5.3a.659.659,0,0,1-.37.066,9.834,9.834,0,0,1-4.882-2.3A2.181,2.181,0,0,1,8.63,3.995ZM15,29.363H4v-12H15Zm0-14H2v-4H15ZM20.34,3.995a2.155,2.155,0,0,1,3.03,3.064,9.834,9.834,0,0,1-4.882,2.3.657.657,0,0,1-.372-.066C17.652,8.815,18.992,5.351,20.34,3.995ZM28,29.363H17v-12H28Zm2-14H17v-4H30Z" transform="translate(0 -1.402)" fill="#21d68c"/>
      </g>
    </g>
  </g>
</svg>
