<svg xmlns="http://www.w3.org/2000/svg" width="30.049" height="28.583" viewBox="0 0 30.049 28.583">
  <g id="reply" transform="matrix(-1, -0.017, 0.017, -1, 29.559, 28.583)">
    <path id="Path_2558" data-name="Path 2558" d="M28.689,16.143q-2.673,6.648-14.435,6.648h-3.7v4.223a1.05,1.05,0,0,1-1.8.743L.313,19.311a1.036,1.036,0,0,1,0-1.485L8.76,9.379a1.056,1.056,0,0,1,1.8.742v4.224h3.7q1.616,0,2.895-.1a20.872,20.872,0,0,0,2.541-.355,9.429,9.429,0,0,0,2.195-.7,7.767,7.767,0,0,0,1.741-1.147,5.748,5.748,0,0,0,1.32-1.666,8.978,8.978,0,0,0,.8-2.285,14.053,14.053,0,0,0,.289-2.986q0-.907-.083-2.029a3.38,3.38,0,0,0-.041-.388c-.027-.193-.058-1.3-.058-1.4A5.3,5.3,0,0,1,25.945.049c.094-.11-.133,0,.032,0s.456.882.588,1.069c.077.1.441,1.058.507,1.2s.14.308.223.495.14.319.173.4a19.807,19.807,0,0,1,2.1,7.44A15.02,15.02,0,0,1,28.689,16.143Z" transform="translate(0 0)" fill="#21d68c"/>
  </g>
</svg>
