<svg xmlns="http://www.w3.org/2000/svg" xmlns:xlink="http://www.w3.org/1999/xlink" width="341.848" height="290.101" viewBox="0 0 341.848 290.101">
  <defs>
    <linearGradient id="linear-gradient" x1="0.5" x2="0.5" y2="1" gradientUnits="objectBoundingBox">
      <stop offset="0" stop-color="#22d78c"/>
      <stop offset="1" stop-color="#0ebca4"/>
    </linearGradient>
    <linearGradient id="linear-gradient-4" x1="0.505" y1="1.007" x2="0.505" gradientUnits="objectBoundingBox">
      <stop offset="0" stop-color="gray" stop-opacity="0.251"/>
      <stop offset="0.54" stop-color="gray" stop-opacity="0.122"/>
      <stop offset="1" stop-color="gray" stop-opacity="0.102"/>
    </linearGradient>
  </defs>
  <g id="Group_1702" data-name="Group 1702" transform="translate(-20.152 -103)">
    <g id="Image" transform="translate(30.004 117.129)">
      <path id="Path_1683" data-name="Path 1683" d="M288.121,66.794c-21.284-.74-41.555-7.606-60.912-15.119s-38.529-15.839-59.3-19.819c-13.362-2.56-28.644-2.922-39.408,4.237-10.362,6.9-13.71,18.784-15.509,29.821-1.355,8.3-2.151,17.042,1.559,24.812,2.578,5.4,7.149,9.933,10.313,15.1,11.007,17.985,3.226,40.165-8.7,57.726-5.591,8.24-12.086,16.105-16.4,24.868s-6.314,18.817-2.536,27.764c3.742,8.874,12.664,15.527,22.33,20.211,19.63,9.515,42.752,12.237,65.315,13.778,49.931,3.415,100.125,1.936,150.188.457,18.528-.549,37.135-1.1,55.361-3.967,10.122-1.591,20.57-4.112,27.92-10.206,9.327-7.734,11.639-20.829,5.387-30.528-10.484-16.266-39.463-20.306-46.8-37.762-4.032-9.611.109-20.312,5.972-29.226,12.576-19.116,33.652-35.889,34.761-57.739.763-15.008-9.369-30.038-25.036-37.141-16.42-7.441-39.194-6.508-51.3,5.814C328.837,62.564,306.915,67.444,288.121,66.794Z" transform="translate(-95.23 -30.18)" opacity="0.1" fill="url(#linear-gradient)"/>
      <ellipse id="Ellipse_331" data-name="Ellipse 331" cx="99.964" cy="13.515" rx="99.964" ry="13.515" transform="translate(59.035 243.18)" opacity="0.1" fill="url(#linear-gradient)"/>
      <rect id="Rectangle_1738" data-name="Rectangle 1738" width="2.914" height="24" rx="1.457" transform="translate(211.389 95.257)" fill="#3a3768"/>
      <rect id="Rectangle_1740" data-name="Rectangle 1740" width="1.842" height="13.752" rx="0.921" transform="translate(114.504 90.921)" fill="#3a3768"/>
      <rect id="Rectangle_1741" data-name="Rectangle 1741" width="1.753" height="13.87" rx="0.876" transform="translate(114.533 109.485)" fill="#3a3768"/>
      <path id="Path_2235" data-name="Path 2235" d="M15.173,0H82.191c21.534,0,15.283,17.456,15.283,38.99V159c0,12.317-.3,22.963-1.313,30.91-1.8,5.171-5.378,8.623-15.733,8.08l-65.382.327C-4.518,198.588,0,180.537,0,159V38.99C0,17.456-6.361,0,15.173,0Z" transform="translate(115.487 50.343)" fill="#3a3768"/>
      <path id="Path_1684" data-name="Path 1684" d="M542.423,199H531.242v1.344a6.371,6.371,0,0,1-6.377,6.37h-35.56a6.371,6.371,0,0,1-6.377-6.37V199H472.461a7.739,7.739,0,0,0-7.741,7.737V378.956a7.739,7.739,0,0,0,7.741,7.737h69.962a7.739,7.739,0,0,0,7.741-7.737V206.75a7.739,7.739,0,0,0-7.741-7.75Z" transform="translate(-343.212 -143.513)" fill="url(#linear-gradient)"/>
      <rect id="Rectangle_1743" data-name="Rectangle 1743" width="13.612" height="2.761" rx="1.38" transform="translate(154.822 56.256)" fill="#e6e8ec"/>
      <ellipse id="Ellipse_332" data-name="Ellipse 332" cx="1.569" cy="1.568" rx="1.569" ry="1.568" transform="translate(170.492 56.068)" fill="#e6e8ec"/>
      <path id="Path_1685" data-name="Path 1685" d="M795.033,156.856s-27.69-1.67-24.428,17.722a4.711,4.711,0,0,0,2.46,4.983s.049-1.436,2.842-.947a13,13,0,0,0,3.009.145,6.269,6.269,0,0,0,3.676-1.5h0s7.784-3.215,10.81-15.928c0,0,2.24-2.774,2.151-3.487l-4.673,2s1.6,3.369.329,6.169c0,0-.151-6.048-1.049-5.916-.181.026-2.427,1.167-2.427,1.167s2.746,5.867.674,10.133c0,0,.786-7.231-1.533-9.709l-3.289,1.919s3.21,6.061,1.033,11.008c0,0,.559-7.586-1.726-10.541l-2.98,2.324s3.016,5.972,1.177,10.074c0,0-.24-8.828-1.822-9.5,0,0-2.608,2.3-3.006,3.241,0,0,2.065,4.339.783,6.626,0,0-.786-5.883-1.431-5.916,0,0-2.6,3.9-2.868,6.574a14.156,14.156,0,0,1,2.24-6.942,7.83,7.83,0,0,0-3.979,2.058s.4-2.754,4.621-3c0,0,2.147-2.958,2.72-3.136,0,0-4.19-.352-6.732.776,0,0,2.236-2.6,7.5-1.417l2.943-2.4s-5.518-.753-7.86.079c0,0,2.693-2.3,8.652-.625l3.2-1.913s-4.706-1.012-7.508-.657c0,0,2.96-1.594,8.448.135l2.3-1.029s-3.446-.677-4.456-.785-1.062-.385-1.062-.385a11.96,11.96,0,0,1,6.475.72S795.115,157.162,795.033,156.856Z" transform="translate(-548.324 -115.197)" fill="#21d68c"/>
      <path id="Path_1686" data-name="Path 1686" d="M736.295,130.657s-12.5-.753-11.037,8.01a2.137,2.137,0,0,0,1.112,2.251s.023-.657,1.286-.431a5.761,5.761,0,0,0,1.358.066,2.816,2.816,0,0,0,1.661-.684h0s3.519-1.453,4.887-7.2c0,0,1.009-1.252.97-1.574l-2.111.9a3.791,3.791,0,0,1,.155,2.787s-.069-2.731-.474-2.669c-.082,0-1.1.529-1.1.529s1.243,2.652.306,4.579c0,0,.355-3.267-.694-4.388l-1.487.881s1.45,2.738.467,4.973c0,0,.253-3.428-.779-4.763l-1.345,1.052s1.362,2.7.533,4.552c0,0-.112-3.99-.825-4.293a8.248,8.248,0,0,0-1.358,1.466s.934,1.972.355,2.994c0,0-.355-2.659-.658-2.672a8.846,8.846,0,0,0-1.3,2.958,6.412,6.412,0,0,1,1.013-3.136,3.54,3.54,0,0,0-1.8.93s.184-1.246,2.088-1.354a8.99,8.99,0,0,1,1.23-1.42,7.715,7.715,0,0,0-3.042.352s1.01-1.173,3.388-.641l1.315-1.085a11.358,11.358,0,0,0-3.552.036s1.217-1.039,3.91-.283l1.447-.864a13.184,13.184,0,0,0-3.394-.292,5.216,5.216,0,0,1,3.818.059l1.036-.463s-1.559-.306-2.016-.355-.48-.174-.48-.174a5.393,5.393,0,0,1,2.927.329A13.4,13.4,0,0,0,736.295,130.657Z" transform="translate(-517.989 -97.623)" fill="#21d68c"/>
      <ellipse id="Ellipse_333" data-name="Ellipse 333" cx="8.856" cy="1.495" rx="8.856" ry="1.495" transform="translate(275.333 252.685)" fill="#34c47c" opacity="0.1"/>
      <ellipse id="Ellipse_334" data-name="Ellipse 334" cx="8.856" cy="1.495" rx="8.856" ry="1.495" transform="translate(21.097 264.958)" fill="#34c47c" opacity="0.1"/>
      <ellipse id="Ellipse_335" data-name="Ellipse 335" cx="8.856" cy="1.495" rx="8.856" ry="1.495" transform="translate(55.355 272.981)" fill="#34c47c" opacity="0.1"/>
      <ellipse id="Ellipse_336" data-name="Ellipse 336" cx="13.224" cy="2.235" rx="13.224" ry="2.235" transform="translate(251.58 267.972)" fill="#21d68c"/>
      <path id="Path_1687" data-name="Path 1687" d="M892.12,828.718a3.849,3.849,0,0,0,1.259-1.9,1.7,1.7,0,0,0-.881-1.936,2.479,2.479,0,0,0-2.328.819,3.11,3.11,0,0,1-2.266,1.091,3.443,3.443,0,0,0,1.069-3.224,1.359,1.359,0,0,0-.3-.657c-.447-.48-1.263-.276-1.8.105-1.71,1.2-2.187,3.523-2.2,5.611a10.556,10.556,0,0,1-.033-2.3,2.376,2.376,0,0,0-.868-2.048,2.613,2.613,0,0,0-1.315-.309,2.74,2.74,0,0,0-2.151.611,2.118,2.118,0,0,0,.085,2.63,8.369,8.369,0,0,0,2.226,1.781,4.933,4.933,0,0,1,1.589,1.515,1.38,1.38,0,0,1,.118.273h4.8A13.5,13.5,0,0,0,892.12,828.718Z" transform="translate(-621.848 -562.166)" fill="#21d68c"/>
      <path id="Path_1688" data-name="Path 1688" d="M281.73,753.45s1.809,2.363-.832,5.916-4.818,6.574-3.946,8.8c0,0,3.986-6.623,7.235-6.715S285.3,757.434,281.73,753.45Z" transform="translate(-217.062 -515.727)" fill="#34c47c"/>
      <path id="Path_1689" data-name="Path 1689" d="M281.947,753.45a2.9,2.9,0,0,1,.368.743c3.164,3.714,4.851,7.182,1.809,7.267-2.831.082-6.229,5.144-7.044,6.422.026.1.059.194.1.293,0,0,3.986-6.623,7.235-6.715S285.515,757.434,281.947,753.45Z" transform="translate(-217.279 -515.727)" opacity="0.1"/>
      <path id="Path_1690" data-name="Path 1690" d="M301.244,761.523c0,.832-.092,1.505-.207,1.505s-.207-.674-.207-1.505.115-.44.23-.44S301.244,760.691,301.244,761.523Z" transform="translate(-233.219 -520.789)" fill="#ffd037"/>
      <path id="Path_1691" data-name="Path 1691" d="M302.694,764.463c-.73.4-1.368.637-1.421.535s.49-.506,1.22-.9.444-.109.5,0S303.424,764.065,302.694,764.463Z" transform="translate(-233.514 -522.736)" fill="#ffd037"/>
      <path id="Path_1692" data-name="Path 1692" d="M254.581,753.45s-1.809,2.363.832,5.916,4.818,6.574,3.946,8.8c0,0-3.982-6.623-7.235-6.715S251.007,757.434,254.581,753.45Z" transform="translate(-199.454 -515.727)" fill="#34c47c"/>
      <path id="Path_1693" data-name="Path 1693" d="M254.567,753.45a2.959,2.959,0,0,0-.372.743c-3.164,3.714-4.847,7.182-1.809,7.267,2.835.082,6.232,5.144,7.048,6.422a2.567,2.567,0,0,1-.1.293s-3.983-6.623-7.235-6.715S250.992,757.434,254.567,753.45Z" transform="translate(-199.439 -515.727)" opacity="0.1"/>
      <path id="Path_1694" data-name="Path 1694" d="M252.65,761.523c0,.832.1,1.505.21,1.505s.207-.674.207-1.505-.115-.44-.23-.44S252.65,760.691,252.65,761.523Z" transform="translate(-200.883 -520.789)" fill="#ffd037"/>
      <path id="Path_1695" data-name="Path 1695" d="M248.242,764.463c.73.4,1.365.637,1.421.535s-.493-.506-1.223-.9-.441-.109-.5,0S247.512,764.065,248.242,764.463Z" transform="translate(-197.626 -522.736)" fill="#ffd037"/>
      <path id="Path_1696" data-name="Path 1696" d="M254.4,791.736s5.051-.158,6.577-1.239,7.771-2.38,8.146-.641,7.593,8.641,1.891,8.687-13.253-.888-14.773-1.811S254.4,791.736,254.4,791.736Z" transform="translate(-202.058 -539.596)" fill="#a8a8a8"/>
      <path id="Path_1697" data-name="Path 1697" d="M271.113,803.5c-5.7.046-13.253-.887-14.772-1.811-1.154-.707-1.618-3.234-1.773-4.4H254.4s.329,4.069,1.838,5,9.07,1.857,14.772,1.811c1.644,0,2.213-.6,2.184-1.466C272.964,803.163,272.336,803.489,271.113,803.5Z" transform="translate(-202.058 -545.157)" opacity="0.2"/>
      <path id="Path_1698" data-name="Path 1698" d="M377.46,474.88a.3.3,0,0,0,.358.046A1.271,1.271,0,0,1,377.46,474.88Z" transform="translate(-284.648 -328.717)" fill="url(#linear-gradient-4)"/>
      <path id="Path_1716" data-name="Path 1716" d="M234.539,427.29l4.815,2.886a4.7,4.7,0,0,0-1.789,1.265c-.4-1.17-2.92-2.8-4.065-3.5C234.122,427.523,234.539,427.29,234.539,427.29Z" transform="translate(-188.031 -296.769)" opacity="0.1"/>
      <path id="Path_1717" data-name="Path 1717" d="M377.059,471.736a.286.286,0,0,1-.329-.046A1.143,1.143,0,0,0,377.059,471.736Z" transform="translate(-284.158 -326.576)" opacity="0.1"/>
      <g id="location-on-map" transform="translate(144.562 119.425)">
        <path id="Path_2230" data-name="Path 2230" d="M91.9,41.233a1.431,1.431,0,0,0,1.891,0c.342-.3,8.38-7.466,8.38-14.9a9.326,9.326,0,1,0-18.651,0C83.523,33.766,91.561,40.931,91.9,41.233ZM92.849,23.9a2.438,2.438,0,1,1-2.418,2.438A2.428,2.428,0,0,1,92.849,23.9Z" transform="translate(-71.536 -17.007)" fill="#fff"/>
        <path id="Path_2231" data-name="Path 2231" d="M58.245,156.988l-1.08-3.786a1.43,1.43,0,0,0-1.375-1.038H48.08q-.418.622-.884,1.248a35.709,35.709,0,0,1-4.6,5.082,3.433,3.433,0,0,1-4.538,0,35.711,35.711,0,0,1-4.6-5.082q-.467-.627-.884-1.248h-7.71a1.43,1.43,0,0,0-1.375,1.038L22.2,157.714l28.78,5.272Z" transform="translate(-19.013 -132.766)" fill="#fff"/>
        <path id="Path_2232" data-name="Path 2232" d="M198.429,209.568l-2.76-9.673-13.694,11.5h15.078a1.43,1.43,0,0,0,1.375-1.823Z" transform="translate(-155.858 -173.647)" fill="#fff"/>
        <path id="Path_2233" data-name="Path 2233" d="M7,205.112l-4.369-.8L.056,213.351a1.43,1.43,0,0,0,1.375,1.823H7Z" transform="translate(-0.001 -177.43)" fill="#fff"/>
        <path id="Path_2234" data-name="Path 2234" d="M62.746,212.445v9.694h14l6.973-5.853Z" transform="translate(-53.741 -184.396)" fill="#fff"/>
      </g>
    </g>
    <g id="location-pointer" transform="translate(5.152 103)">
      <g id="Group_1267" data-name="Group 1267" transform="translate(15)">
        <path id="Path_2237" data-name="Path 2237" d="M69.647,0C39.462,0,15,25.508,15,56.967c0,54.392,54.647,125.328,54.647,125.328s54.647-70.935,54.647-125.328C124.294,25.508,99.828,0,69.647,0Zm0,88.413c-16.3,0-29.509-13.772-29.509-30.762S53.347,26.889,69.647,26.889,99.156,40.661,99.156,57.651,85.943,88.413,69.647,88.413Z" transform="translate(-15 0)" fill="#0ebca3"/>
      </g>
    </g>
  </g>
</svg>
