<svg xmlns="http://www.w3.org/2000/svg" xmlns:xlink="http://www.w3.org/1999/xlink" width="332.857" height="267.919" viewBox="0 0 332.857 267.919">
  <defs>
    <linearGradient id="linear-gradient" x1="0.5" x2="0.5" y2="1" gradientUnits="objectBoundingBox">
      <stop offset="0" stop-color="#6b4d42"/>
      <stop offset="1" stop-color="#805f4b"/>
    </linearGradient>
    <linearGradient id="linear-gradient-2" x1="0.39" y1="0.062" x2="0.458" y2="0.29" gradientUnits="objectBoundingBox">
      <stop offset="0" stop-color="#ad957e"/>
      <stop offset="0.224" stop-color="#b79271"/>
      <stop offset="0.59" stop-color="#b58f6a"/>
      <stop offset="0.966" stop-color="#cb9662"/>
      <stop offset="1" stop-color="#cb9662"/>
    </linearGradient>
    <linearGradient id="linear-gradient-3" x1="0.756" y1="1.159" x2="0.466" y2="0.437" gradientUnits="objectBoundingBox">
      <stop offset="0" stop-color="#cb9662"/>
      <stop offset="1" stop-color="#cb9662"/>
    </linearGradient>
    <linearGradient id="linear-gradient-4" x1="0.546" y1="0.507" x2="0.186" y2="0.487" gradientUnits="objectBoundingBox">
      <stop offset="0" stop-color="#c48e59"/>
      <stop offset="0.297" stop-color="#cb925a"/>
      <stop offset="0.695" stop-color="#c79360"/>
      <stop offset="1" stop-color="#cb9662"/>
    </linearGradient>
    <linearGradient id="linear-gradient-5" x1="0.299" y1="1.017" x2="0.724" y2="0.051" gradientUnits="objectBoundingBox">
      <stop offset="0" stop-color="#937054"/>
      <stop offset="0.52" stop-color="#674a41"/>
      <stop offset="0.89" stop-color="#352522"/>
      <stop offset="1" stop-color="#352522"/>
    </linearGradient>
  </defs>
  <g id="illlustration" transform="translate(-22.705 -132.107)">
    <g id="thermo" transform="translate(264 132.522)">
      <path id="Path_2297" data-name="Path 2297" d="M22.009,125.973H13.146A6.451,6.451,0,0,0,6.7,132.424v61.9a2.646,2.646,0,0,0,2.645,2.645h2.028a2.646,2.646,0,0,0,2.646-2.645V132.771h7.994Zm0,0" transform="translate(-4.976 -93.624)" fill="#eaf9f2"/>
      <path id="Path_2298" data-name="Path 2298" d="M8.113,202.2H2.645A2.645,2.645,0,0,1,0,199.553v-9.5a2.646,2.646,0,0,1,2.645-2.646H8.113a2.646,2.646,0,0,1,2.645,2.646v9.5A2.646,2.646,0,0,1,8.113,202.2Zm0,0" transform="translate(0 -139.285)" fill="#d0eade"/>
      <path id="Path_2299" data-name="Path 2299" d="M118.617,131.478H74.854a2.644,2.644,0,0,1-2.643-2.643V18.48A18.48,18.48,0,0,1,90.691,0H102.78a18.48,18.48,0,0,1,18.48,18.48V128.835A2.643,2.643,0,0,1,118.617,131.478Zm0,0" transform="translate(-53.668)" fill="#eaf9f2"/>
      <path id="Path_2300" data-name="Path 2300" d="M185.3,18.481V128.835a2.644,2.644,0,0,1-2.645,2.643h-8.444a2.641,2.641,0,0,0,2.642-2.643V18.481A18.479,18.479,0,0,0,158.371,0h8.444A18.481,18.481,0,0,1,185.3,18.481Zm0,0" transform="translate(-117.702)" fill="#d0eade"/>
      <path id="Path_2305" data-name="Path 2305" d="M115.022,112.524v9.357a2.645,2.645,0,0,1-2.646,2.646H62.028a2.645,2.645,0,0,1-2.645-2.646v-9.357a2.644,2.644,0,0,1,2.645-2.645h50.347A2.645,2.645,0,0,1,115.022,112.524Zm0,0" transform="translate(-44.134 -81.663)" fill="#d0eade"/>
      <path id="Path_2306" data-name="Path 2306" d="M242.069,112.524v9.357a2.645,2.645,0,0,1-2.646,2.646h-9.1V109.879h9.1A2.645,2.645,0,0,1,242.069,112.524Zm0,0" transform="translate(-171.181 -81.663)" fill="#d0eade"/>
    </g>
    <g id="sneakers" transform="translate(206 319.303)">
      <path id="Path_2282" data-name="Path 2282" d="M435.249,156.191v4.748c-1.357,5.555-10.9,10.706-25.734,10.706v-.05l-3.277-23.763C421.741,150.564,435.249,149.5,435.249,156.191Zm0,0" transform="translate(-285.687 -103.963)" fill="#d2ebe0"/>
      <g id="Group_1279" data-name="Group 1279" transform="translate(0 6.148)">
        <path id="Path_2283" data-name="Path 2283" d="M149.562,201.5c-11.87,14.244-47.48,14.312-147.188,14.244A2.366,2.366,0,0,1,0,213.366v-7.122c62.793.048,101.108.023,123.828-3.538,11.252-1.78,18.682-4.415,23.36-8.332A18.662,18.662,0,0,0,149.562,192Zm0,0" transform="translate(0 -141.172)" fill="#d0eade"/>
        <path id="Path_2284" data-name="Path 2284" d="M268.616,121.646a2.4,2.4,0,0,1-.714-3.3l3.611-5.627c1.472.665,2.967,1.306,4.463,1.876l-4.084,6.315A2.379,2.379,0,0,1,268.616,121.646Zm0,0" transform="translate(-188.138 -85.418)" fill="#d2ebe0"/>
        <path id="Path_2285" data-name="Path 2285" d="M312.224,127.871l-3.988,6.22a2.382,2.382,0,0,1-4.014-2.564V131.5l3.3-5.105C309.091,126.921,310.681,127.42,312.224,127.871Zm0,0" transform="translate(-213.68 -95.038)" fill="#d2ebe0"/>
        <path id="Path_2286" data-name="Path 2286" d="M171.509,56.481a2.376,2.376,0,0,1-2.351-4.13l5.294-2.992c1.137,1.211,2.324,2.374,3.536,3.466Zm0,0" transform="translate(-118.117 -40.86)" fill="#d2ebe0"/>
        <path id="Path_2287" data-name="Path 2287" d="M145.588,22.168l4.843-1.449c1,1.4,2.017,2.728,3.109,4.01l-6.576,2A2.386,2.386,0,0,1,144,25.135a2.357,2.357,0,0,1,1.592-2.944Zm0,0" transform="translate(-101.194 -20.719)" fill="#d2ebe0"/>
        <path id="Path_2288" data-name="Path 2288" d="M201.363,82.258a2.372,2.372,0,0,1-3.133-3.561l5.059-4.466c1.282,1.046,2.588,2,3.894,2.92Zm0,0" transform="translate(-138.832 -58.351)" fill="#d2ebe0"/>
        <path id="Path_2289" data-name="Path 2289" d="M236.882,103.794a2.369,2.369,0,1,1-3.751-2.893l4.083-5.292c1.377.83,2.779,1.614,4.179,2.347Zm0,0" transform="translate(-163.597 -73.386)" fill="#d2ebe0"/>
        <path id="Path_2290" data-name="Path 2290" d="M345.059,145.365a2.38,2.38,0,0,1-1.117-3.158h.025l2.517-5.246c1.59.4,3.182.757,4.725,1.092l-2.992,6.193.024.027A2.4,2.4,0,0,1,345.059,145.365Zm0,0" transform="translate(-241.72 -102.466)" fill="#d2ebe0"/>
      </g>
      <path id="Path_2291" data-name="Path 2291" d="M102.23,45.889a2.385,2.385,0,0,0,4.3,2.066l-.024-.027,2.992-6.193c3.869.831,7.571,1.52,11.062,2.134l3.277,23.763v.05C101.116,71.243,62.8,71.267.008,71.22V68.846C.008,37.818,9.5,52.228,2.382,0,28.8,5.292,45.114,0,45.114,0c1.305,2.161,2.682,4.2,4.131,6.148L44.4,7.6V7.62a2.357,2.357,0,0,0-1.592,2.944,2.386,2.386,0,0,0,2.967,1.59l6.576-2q1.923,2.351,3.991,4.489l-5.3,2.992a2.376,2.376,0,0,0,2.351,4.13l6.479-3.656c1.5,1.4,3.038,2.707,4.583,3.915L59.4,26.494a2.372,2.372,0,0,0,3.133,3.561l5.817-5.105q2.6,1.817,5.27,3.42l-4.083,5.292a2.369,2.369,0,1,0,3.751,2.893l4.508-5.84c1.851.974,3.706,1.9,5.581,2.73l-3.611,5.627a2.371,2.371,0,1,0,3.99,2.564l4.084-6.315c1.994.807,4.012,1.52,6.006,2.184l-3.3,5.105v.023A2.382,2.382,0,0,0,94.56,45.2l3.988-6.22c2.115.618,4.179,1.164,6.22,1.662l-2.517,5.246h-.021Zm0,0" transform="translate(-0.005)" fill="#eaf9f2"/>
      <path id="Path_2292" data-name="Path 2292" d="M82.031,139.023a9.5,9.5,0,1,1,9.5-9.5A9.505,9.505,0,0,1,82.031,139.023Zm0-16.618a7.122,7.122,0,1,0,7.122,7.122A7.131,7.131,0,0,0,82.031,122.405Zm0,0" transform="translate(-51.01 -84.412)" fill="#d2ebe0"/>
      <path id="Path_2293" data-name="Path 2293" d="M31.694,230.159q-8.3,0-17.261-.007a1.187,1.187,0,0,1,0-2.374c85.153.07,124.018.079,139.422-9.9a1.186,1.186,0,1,1,1.29,1.991C140.27,229.507,105.412,230.159,31.694,230.159Zm0,0" transform="translate(-9.315 -153.088)" fill="#eaf9f2"/>
      <path id="Path_2294" data-name="Path 2294" d="M99.089,147.057a1.188,1.188,0,0,1-.84-.347l-4.656-4.655a1.187,1.187,0,0,1,1.678-1.678l4.656,4.655a1.186,1.186,0,0,1-.838,2.025Zm0,0" transform="translate(-65.575 -98.476)" fill="#d2ebe0"/>
      <path id="Path_2295" data-name="Path 2295" d="M94.432,119.9a1.186,1.186,0,0,1-.84-2.025l9.5-9.5a1.187,1.187,0,1,1,1.678,1.678l-9.5,9.5A1.178,1.178,0,0,1,94.432,119.9Zm0,0" transform="translate(-65.575 -75.972)" fill="#d2ebe0"/>
      <path id="Path_2296" data-name="Path 2296" d="M78.122,167.586a1.186,1.186,0,0,1-.84-2.025l9.5-9.5a1.187,1.187,0,1,1,1.678,1.678l-9.5,9.5A1.182,1.182,0,0,1,78.122,167.586Zm0,0" transform="translate(-54.104 -109.509)" fill="#d2ebe0"/>
    </g>
    <g id="shirt" transform="translate(63.571 132.107)">
      <path id="Path_2278" data-name="Path 2278" d="M111.511,10.064C103.839,4.033,87.423.237,86.727.08A2.384,2.384,0,0,0,83.814,2.4c0,3.218-6.6,7.152-14.3,7.152S55.206,5.62,55.206,2.4a2.383,2.383,0,0,0-.9-1.864A2.327,2.327,0,0,0,52.293.061C51.6.218,35.185,4.019,27.5,10.045,19.561,16.31,17.3,46.5,17.062,49.92a2.384,2.384,0,0,0,1.345,2.308,56.531,56.531,0,0,0,17.727,4.911V107.3a2.384,2.384,0,0,0,1.268,2.1c.386.21,9.746,5.049,32.108,5.049s31.721-4.839,32.108-5.049a2.384,2.384,0,0,0,1.268-2.1V57.138a56.535,56.535,0,0,0,17.723-4.911,2.384,2.384,0,0,0,1.349-2.308C121.719,46.5,119.459,16.31,111.511,10.064Z" transform="translate(0 0)" fill="#eaf9f2"/>
      <g id="Group_1278" data-name="Group 1278" transform="translate(31.393 23.826)">
        <path id="Path_2279" data-name="Path 2279" d="M75.428,118.74a2.384,2.384,0,0,1-2.384-2.384v-14.3a19.072,19.072,0,0,0-4.072-12.616,2.384,2.384,0,0,1,3.371-3.371,23.31,23.31,0,0,1,5.469,15.987v14.3A2.383,2.383,0,0,1,75.428,118.74Z" transform="translate(-68.303 -85.333)" fill="#d0eade"/>
        <path id="Path_2280" data-name="Path 2280" d="M309.151,118.577a2.384,2.384,0,0,1-2.384-2.384v-14.3A23.312,23.312,0,0,1,312.231,85.9a2.384,2.384,0,0,1,3.43,3.312l-.059.059a19.071,19.071,0,0,0-4.067,12.621v14.3A2.384,2.384,0,0,1,309.151,118.577Z" transform="translate(-240.042 -85.17)" fill="#d0eade"/>
      </g>
      <path id="Path_2281" data-name="Path 2281" d="M173.658.61A2.351,2.351,0,0,0,171.694.1a144.311,144.311,0,0,1-16.24,2.341A144.2,144.2,0,0,1,139.215.1a2.355,2.355,0,0,0-1.964.505,2.384,2.384,0,0,0-.868,1.836c0,7.152,9.86,11.92,19.072,11.92S174.526,9.6,174.526,2.445A2.384,2.384,0,0,0,173.658.61Z" transform="translate(-85.944 -0.043)" fill="#d0eade"/>
    </g>
    <g id="Group_1277" data-name="Group 1277" transform="translate(-222.783 125.357)">
      <g id="Group_1269" data-name="Group 1269" transform="translate(335.783 90.403)">
        <path id="Path_2238" data-name="Path 2238" d="M412.969,100l-9.01,56.9,9.01,67.794,35.561-55.328-.954-95.912Z" transform="translate(-282.408 -67.087)" fill="#1bb475" fill-rule="evenodd"/>
        <path id="Path_2239" data-name="Path 2239" d="M412.454,92.767l-.674,4.258,35.961,19.428-.048-4.65L412.454,92.767Zm-2.409,15.217,37.815,20.427.046,4.65-38.536-20.817.674-4.259ZM407.633,123.2l-.674,4.259,41.11,22.211-.046-4.65L407.633,123.2Zm-2.411,15.217,42.684,23.062-2.207,3.429-41.151-22.233.674-4.258Zm-.824,16.076.661,4.981,32.761,17.7,2.2-3.43L404.4,154.494Zm2.368,17.8,25.376,13.712-2.2,3.432-22.513-12.163-.661-4.981Zm2.366,17.8.661,4.981,12.263,6.625,2.209-3.432-15.133-8.175Zm2.368,17.8.661,4.98,2.016,1.089,2.2-3.43-4.882-2.639ZM447.565,98.968l-21-11.348,1.993-3.544L447.52,94.318Z" transform="translate(-282.064 -58.771)" fill="#e7e6d9" fill-rule="evenodd"/>
        <path id="Path_2240" data-name="Path 2240" d="M463.766,89.411l-124.69-2.432v124.69l124.69,2.434Z" transform="translate(-333.205 -56.497)" fill="#21d68c" fill-rule="evenodd"/>
        <path id="Path_2241" data-name="Path 2241" d="M445.481,88.911l-7.294-.143-99.111,60.9v4.625L445.481,88.911Zm-27.43-.537L339.076,136.9v-4.625l71.681-44.047,7.294.143Zm-27.43-.535-51.545,31.673v-4.625L383.328,87.7l7.294.141ZM363.19,87.3l-24.114,14.816V97.5L355.9,87.162l7.292.143Zm-24.114,79.753L463.767,90.441v4.625L339.076,171.682v-4.625Zm0,16.522,124.691-76.618v4.623L339.076,188.2v-4.621Zm8.034,28.1L463.767,140v4.625l-109.361,67.2-7.3-.141Zm26.061.508,7.29.143,83.306-51.191v-4.619l-90.6,55.667Zm26.061.508,7.288.143,57.247-35.177v-4.621L399.231,212.7Zm26.057.508,7.29.143,31.188-19.164v-4.623l-38.478,23.645Zm26.057.508,7.294.143,5.128-3.15v-4.625l-12.422,7.633ZM463.767,128.1l-124.68,76.624-.009-4.619L463.767,123.48Z" transform="translate(-333.205 -56.354)" fill="#f5f4eb" fill-rule="evenodd"/>
        <path id="Path_2242" data-name="Path 2242" d="M367.123,201.171l24.686.482V102.058l-11.339-.194-13.346-.232Z" transform="translate(-311.247 -45.025)" fill="#3a3768" fill-rule="evenodd"/>
        <path id="Path_2243" data-name="Path 2243" d="M335.783,118.026l134.391,2.188V92.728l-55.6-10.841-78.792,7.9Z" transform="translate(-335.783 -60.483)" fill="#21d68c" fill-rule="evenodd"/>
        <path id="Path_2244" data-name="Path 2244" d="M335.942,117.477l7.328.123,56.62-34.793-8.989.9-54.958,33.766Zm27.573.451L421.02,82.591l5.712,1.114-55.89,34.342-7.328-.119Zm27.569.448L442.5,86.781l5.714,1.114-49.805,30.6-7.328-.119Zm27.571.447,7.331.123L469.7,92.083l-5.711-1.111-45.334,27.851Zm26.193.428,7.33.118,18-11.056V103.69l-25.328,15.561ZM366.069,86.2l-30.286,18.608v-4.621L357.076,87.1Z" transform="translate(-335.783 -59.932)" fill="#f5f4eb" fill-rule="evenodd"/>
        <path id="Path_2245" data-name="Path 2245" d="M366.168,118.052l26.388.429-.343-35.5-26.044.587Z" transform="translate(-311.995 -59.626)" fill="#3a3768" fill-rule="evenodd"/>
        <path id="Path_2246" data-name="Path 2246" d="M411.161,128.415l35.39-30.776-.071-26.228-35.318,29.517Z" transform="translate(-276.77 -68.685)" fill="#1bb475" fill-rule="evenodd"/>
        <path id="Path_2247" data-name="Path 2247" d="M505.562,72.626,393.419,69.882l-57.636,29.3,134.391,2.938Z" transform="translate(-335.783 -69.882)" fill="#21d68c" fill-rule="evenodd"/>
        <path id="Path_2248" data-name="Path 2248" d="M380.968,102.893v5.751l44.841.891,5.159.1v-5.93l-4.226-.07Z" transform="translate(-300.407 -44.038)" fill="#1bb475" fill-rule="evenodd"/>
        <path id="Path_2249" data-name="Path 2249" d="M391.808,108.82v-5.751l-24.686-.4v5.662Z" transform="translate(-311.247 -44.215)" fill="#333058" fill-rule="evenodd"/>
        <path id="Path_2250" data-name="Path 2250" d="M389.08,108.687v-5.662l-1.7-.027-48.3-.786v5.479Z" transform="translate(-333.205 -44.572)" fill="#2eb06f" fill-rule="evenodd"/>
        <path id="Path_2251" data-name="Path 2251" d="M418.043,86.707l.122,26.939,12.191-10.6-.082-26.532L421,84.207Z" transform="translate(-271.382 -64.692)" fill="#3a3768" fill-rule="evenodd"/>
        <path id="Path_2252" data-name="Path 2252" d="M416.808,103.073v85.008l12.043-18.742V92.6l-9.718,8.452Z" transform="translate(-272.349 -52.098)" fill="#3a3768" fill-rule="evenodd"/>
        <path id="Path_2253" data-name="Path 2253" d="M423.562,96.007v7.912l9.011-7.4-.085-8.278-6.454,5.612Z" transform="translate(-267.061 -55.506)" fill="#2eb06f" fill-rule="evenodd"/>
        <path id="Path_2254" data-name="Path 2254" d="M428.851,100.51V92.6l-9.718,8.452-2.324,2.022V110.4Z" transform="translate(-272.349 -52.098)" fill="#333058" fill-rule="evenodd"/>
        <path id="Path_2255" data-name="Path 2255" d="M422.911,105.8V98.473l-10.068,8.755-3.83-.061v5.93l5.149-.114Z" transform="translate(-278.452 -47.498)" fill="#2eb06f" fill-rule="evenodd"/>
        <path id="Path_2256" data-name="Path 2256" d="M482.042,81.194,435,79.267l13.7-8.216-22.989-.562-10.853,6.58-45.091-1.657L350.911,85l47.646,1.847-8.04,5.132-1.775,1.133-10.628,6.785,26.118.574L416.009,93.4l5.978-3.587,46.8,1.55,1.816.059,12.23-10.2Z" transform="translate(-323.94 -69.407)" fill="#3a3768" fill-rule="evenodd"/>
        <path id="Path_2257" data-name="Path 2257" d="M411.161,94.425l12.378.943.015,4.253-12.393-.573Z" transform="translate(-276.77 -50.668)" fill="#e7e6d9" fill-rule="evenodd"/>
        <path id="Path_2258" data-name="Path 2258" d="M423.467,87.151l-8.51-.961L411.589,89l-.428.358,12.319,1.053Z" transform="translate(-276.77 -57.114)" fill="#e7e6d9" fill-rule="evenodd"/>
        <path id="Path_2259" data-name="Path 2259" d="M424.94,88.313l.007,2.48,3.974.389.51-.446,1.983-1.722,1.322-1.15-1.335-.1-6.464-.5Z" transform="translate(-265.985 -56.275)" fill="#e7e6d9" fill-rule="evenodd"/>
        <path id="Path_2260" data-name="Path 2260" d="M435.765,84.518l0-4.477-4.489-.481-6.362-.68.013,4.5,6.393.67Z" transform="translate(-266.005 -62.837)" fill="#e7e6d9" fill-rule="evenodd"/>
        <path id="Path_2261" data-name="Path 2261" d="M352.794,96.725l-.868-9.437-6.962,3.543.638,6.615.2,2.082,7.267.157-.275-2.96ZM479.887,81.356l-2.548-9.278-8.13-.2,2.769,9.153,7.909.324ZM458.8,91.319l-7.506-.25,3.309,9.389.513,1.458,5,.111,2.27.05.127-.078-.494-1.43-3.216-9.25ZM447.4,80.024l7.586.31-2.824-8.126-6.2,3.721,1.441,4.1ZM430.7,90.39l-4.054-.137-2.662,1.6,1.15,2.856,2.658,6.613,7.265.159-1.462-3.724L433,96.243l-2.3-5.853ZM415.417,70.562l2.774,6.9,1.323.048,4.946-3-1.478-3.764-7.565-.185Zm-26.009-.636,2,6.549,5.764.212-1.956-6.618-5.809-.143Zm11.364,18.917-.521-1.671-5.645-.221,1.344,4.967,4.821-3.075Zm-21.657,5.243-1.61-7.8-6.928-.269,1.587,8.763.966,5.342,7.265.159-.847-4.1Z" transform="translate(-328.595 -69.848)" fill="#f5f4eb" fill-rule="evenodd"/>
      </g>
      <g id="Group_1276" data-name="Group 1276" transform="translate(361.623 43.671)">
        <g id="Group_1272" data-name="Group 1272" transform="translate(60.872 0.002)">
          <g id="Group_1270" data-name="Group 1270" transform="translate(1.934)">
            <path id="Path_2262" data-name="Path 2262" d="M420.435,45.753c6.062,26.494-8.724,48.63-32.019,60.481l-.729-9.959c10.806-5.58,32.492-24.723,17.094-36.175l6.5-11.633Z" transform="translate(-383.793 -42.043)" fill="#3a3768" fill-rule="evenodd"/>
            <path id="Path_2263" data-name="Path 2263" d="M385.5,106.458s1.991-55.618,11.978-60.362,20.739-1.54,24.665,1.285c-11.227,4.571-31.416,44.993-32.019,60.48Z" transform="translate(-385.503 -43.672)" fill="#3a3768" fill-rule="evenodd"/>
            <path id="Path_2264" data-name="Path 2264" d="M413.053,51.016a51.171,51.171,0,0,0-.826-5.263c-3.981,1.619-9.095,7.752-14.056,15.684a12.473,12.473,0,0,1,2.767,3.748A106.61,106.61,0,0,1,413.053,51.016Z" transform="translate(-375.585 -42.043)" fill="#333058" fill-rule="evenodd"/>
            <path id="Path_2265" data-name="Path 2265" d="M393.894,83.119a80.695,80.695,0,0,1,2.678-12.528,61.788,61.788,0,0,1-5.983,4.372A48.455,48.455,0,0,0,388.1,86.787,52.384,52.384,0,0,0,393.894,83.119Z" transform="translate(-383.473 -22.597)" fill="#333058" fill-rule="evenodd"/>
          </g>
          <g id="Group_1271" data-name="Group 1271" transform="translate(0 23.713)">
            <path id="Path_2266" data-name="Path 2266" d="M450.558,69c-13.771,23.433-39.716,29.388-64.792,22.024l6.3-7.745c11.692,3.354,40.6,4.313,37.259-14.581l12.71-4Z" transform="translate(-383.363 -50.928)" fill="#3a3768" fill-rule="evenodd"/>
            <path id="Path_2267" data-name="Path 2267" d="M384.418,92.872s39.616-39.086,50.137-35.69S450.7,70.3,451.614,75.043c-8.886-3.44-37,5.43-54.243,14.79a49.623,49.623,0,0,0-10.55,7.235Z" transform="translate(-384.418 -56.973)" fill="#3a3768" fill-rule="evenodd"/>
            <path id="Path_2268" data-name="Path 2268" d="M428.558,71.838a51.737,51.737,0,0,0,3.011-4.4c-4.008-1.555-11.936-.6-20.99,1.767a12.384,12.384,0,0,1-.558,4.625A106.821,106.821,0,0,1,428.558,71.838Z" transform="translate(-364.373 -49.371)" fill="#333058" fill-rule="evenodd"/>
            <path id="Path_2269" data-name="Path 2269" d="M392.5,83.8a80.881,80.881,0,0,1,10.546-7.272,61.053,61.053,0,0,1-7.353-.929,48.385,48.385,0,0,0-9.927,6.893A52.354,52.354,0,0,0,392.5,83.8Z" transform="translate(-383.363 -42.393)" fill="#333058" fill-rule="evenodd"/>
          </g>
        </g>
        <g id="Group_1275" data-name="Group 1275">
          <g id="Group_1273" data-name="Group 1273" transform="translate(27.257)">
            <path id="Path_2270" data-name="Path 2270" d="M366.926,45.753c-6.062,26.494,8.724,48.63,32.017,60.481l.731-9.959c-10.806-5.58-32.492-24.723-17.094-36.175l-6.5-11.633Z" transform="translate(-365.564 -42.042)" fill="#3a3768" fill-rule="evenodd"/>
            <path id="Path_2271" data-name="Path 2271" d="M402.972,106.459S400.979,50.842,390.993,46.1s-20.74-1.54-24.665,1.285c11.227,4.571,31.415,44.993,32.017,60.481Z" transform="translate(-364.965 -43.671)" fill="#3a3768" fill-rule="evenodd"/>
            <path id="Path_2272" data-name="Path 2272" d="M365.866,51.014a51.539,51.539,0,0,1,.824-5.261c3.983,1.619,9.095,7.756,14.055,15.688a12.385,12.385,0,0,0-2.763,3.746A107.142,107.142,0,0,0,365.866,51.014Z" transform="translate(-365.327 -42.042)" fill="#333058" fill-rule="evenodd"/>
            <path id="Path_2273" data-name="Path 2273" d="M382.212,83.119a80.974,80.974,0,0,0-2.68-12.528,61.625,61.625,0,0,0,5.983,4.372,48.3,48.3,0,0,1,2.492,11.826A52.726,52.726,0,0,1,382.212,83.119Z" transform="translate(-354.628 -22.596)" fill="#333058" fill-rule="evenodd"/>
          </g>
          <g id="Group_1274" data-name="Group 1274" transform="translate(0 23.716)">
            <path id="Path_2274" data-name="Path 2274" d="M350.276,69c13.771,23.433,39.716,29.388,64.792,22.024l-6.3-7.745c-11.692,3.354-40.6,4.313-37.257-14.581l-12.714-4Z" transform="translate(-350.276 -50.93)" fill="#3a3768" fill-rule="evenodd"/>
            <path id="Path_2275" data-name="Path 2275" d="M417.472,92.871s-39.618-39.09-50.135-35.688-16.144,13.111-17.061,17.859C361.581,70.665,404,86.214,415.068,97.067Z" transform="translate(-350.276 -56.973)" fill="#3a3768" fill-rule="evenodd"/>
            <path id="Path_2276" data-name="Path 2276" d="M353.286,71.838a51.915,51.915,0,0,1-3.01-4.4c4.008-1.555,11.937-.6,20.988,1.767a12.494,12.494,0,0,0,.558,4.625A106.8,106.8,0,0,0,353.286,71.838Z" transform="translate(-350.276 -49.372)" fill="#333058" fill-rule="evenodd"/>
            <path id="Path_2277" data-name="Path 2277" d="M387.468,83.8a81.035,81.035,0,0,0-10.542-7.274,61.133,61.133,0,0,0,7.351-.927,48.317,48.317,0,0,1,9.927,6.893A52.348,52.348,0,0,1,387.468,83.8Z" transform="translate(-329.412 -42.394)" fill="#333058" fill-rule="evenodd"/>
          </g>
        </g>
      </g>
    </g>
    <g id="_2" data-name="2" transform="translate(22.705 175.557)">
      <path id="Path_505" data-name="Path 505" d="M98.87,81.53l-8.177,7.126L89.356,64.979s11.8-7.064,12.447-3.642" transform="translate(-68.856 -41.546)" fill="url(#linear-gradient)"/>
      <g id="Group_16" data-name="Group 16" transform="translate(0 0)">
        <path id="Path_88" data-name="Path 88" d="M562.848,491.782h4.846v1.227h62.729v-1.227h4.862V490.4h-8.348v-1.227h-55.9V490.4h-8.191Z" transform="translate(-560.676 -292.088)" fill="#eaf9f2" fill-rule="evenodd" opacity="0.42"/>
        <g id="Group_15" data-name="Group 15">
          <rect id="Rectangle_1" data-name="Rectangle 1" width="5.8" height="15.19" transform="translate(13.891 23.502)" fill="#725446"/>
          <path id="Path_89" data-name="Path 89" d="M622.286,213.055c-3.075-3.843-3.794-7.984-6.744-11.543-3.021-3.646-5.889-7.477-7.864-10.115-1.043-1.393-4.744-1.945-6.175-1.668,1.219,6.972,5.032,8.477,5.661,13.333A174.2,174.2,0,0,0,621,215.577a11.879,11.879,0,0,0,2.541,1.575C624.084,217.423,622.453,214.755,622.286,213.055Z" transform="translate(-361.383 -453.156) rotate(34)" fill="#cb9662" fill-rule="evenodd"/>
          <path id="Path_90" data-name="Path 90" d="M602.919,169.395l2.02,3c-.141,7.968-1.358,26.538-2.35,34.4-.15,1.192-.782,4.475-2.268,5.833-.744.308-1.826-.42-2.332-.933-2.433-2.466-.95-11.216-.413-14.5C598.651,190.588,601.7,175.96,602.919,169.395Z" transform="translate(657.668 170.843) rotate(171)" fill="#cb9662" fill-rule="evenodd"/>
          <path id="Path_91" data-name="Path 91" d="M594.91,477.865a11.968,11.968,0,0,0-.8,2.346l5.736,1.863,2.62-.94a10.706,10.706,0,0,1-3.852-3.63c-.155-.5-.277-1.095-.411-1.588l-3.583-.008Z" transform="translate(-546.69 -287.853)" fill="#fcc078" fill-rule="evenodd"/>
          <path id="Path_92" data-name="Path 92" d="M670.15,480.15l-.77-2.562-.159-1.56-3.335-.007.057,1.449-1.129,2.475,1.027,1.3h3.481Z" transform="translate(-650.735 -287.907)" fill="#fcc078" fill-rule="evenodd"/>
          <path id="Path_93" data-name="Path 93" d="M626.9,279.181c.653,3.379,1.876,7.626,2.785,11.252,2.425,13.158,4.5,25.459,7.368,38.539l.029,6.136,8,45.925-4.247.016c-4.232-12.255-7.663-24.7-11.151-36.74-.191-5.574-1-9.869-.8-14.212-5.553-14.316-8.044-22.062-12.408-35.511l-.93-.1c-.261,11.53-1.017,24.12-1.787,35.6l-.591,3.775v13.512l-1.42,33.664-3.486,0-3.936-36.739c.289-4.106.692-10.137,1.194-14.243-1.372-13.052-3.51-27.333-4.009-38.852.242-3.223,1.679-8.4,2.766-12.033Z" transform="translate(-593.124 -192.286)" fill="#3a3768" fill-rule="evenodd"/>
          <path id="Path_94" data-name="Path 94" d="M660.549,203.474a152.829,152.829,0,0,0-3.914-16.947A33.161,33.161,0,0,0,649.6,184.1l-6.192.4a38.75,38.75,0,0,0-7.035,3.012,2.355,2.355,0,0,0-.443.286,75.226,75.226,0,0,0-1.438,10.359,116.579,116.579,0,0,1,2.638,15.943c.363,4.026,1.634,7.768,1.127,11.8-.463,3.683-2.552,7.039-3.073,11.185,4.025,2.259,10.424,2.758,14.629,2.643,4.37-.119,9.2-1.429,10.628-3.332-.679-4.26-3.246-7.5-3.6-10.5-.546-4.657,1.48-8.742,2.53-16.349A17.487,17.487,0,0,0,660.549,203.474Z" transform="translate(-625.544 -146.02)" fill="#6f6c8e" fill-rule="evenodd"/>
          <path id="Path_95" data-name="Path 95" d="M649.621,176.044l2.962-1.455.48-10.13,4.818.48.716,9.65,2.968.921c.173,2.917,1.5,12.068-2.968,12.777C653.177,189.148,650.816,179.906,649.621,176.044Z" transform="translate(-634.29 -136.556)" fill-rule="evenodd" fill="url(#linear-gradient-2)"/>
          <path id="Path_98" data-name="Path 98" d="M637.221,135.888c4.994-4.235,11.784-11.735,12.186-13.724,1.865,2.564,4.81,4.926,7.454,5.285a16.343,16.343,0,0,0,1.006,4,28.387,28.387,0,0,1,1.328,4.44c-1.025,4.745-3.218,10.979-7.072,12.97C645.49,148.641,639.676,142.726,637.221,135.888Z" transform="translate(-626.353 -116.009)" fill-rule="evenodd" fill="url(#linear-gradient-3)"/>
          <path id="Path_99" data-name="Path 99" d="M665.975,142.115a3.841,3.841,0,0,1-2.537,1.249,5.732,5.732,0,0,1-3.148-.7c.261-1.073,1.11-1.2,2.067-1.715S665.295,140.095,665.975,142.115Z" transform="translate(-644.235 -124.943)" fill="#fefefe" fill-rule="evenodd"/>
          <path id="Path_100" data-name="Path 100" d="M662.563,142.433a1.611,1.611,0,0,1,.071-1.074,4.032,4.032,0,0,1,2.653-.434c.328.069.446.911.435,1.189a1.485,1.485,0,0,1-.452,1.116,2.557,2.557,0,0,1-2.075.183A1.579,1.579,0,0,1,662.563,142.433Z" transform="translate(-645.121 -125.095)" fill="#3a3768" fill-rule="evenodd"/>
          <path id="Path_101" data-name="Path 101" d="M643.025,140.623a4.723,4.723,0,0,0,2.8.481,3.425,3.425,0,0,0,2.1-.835c-.137-.683-.722-1.891-1.767-2.045A3.226,3.226,0,0,0,643.025,140.623Z" transform="translate(-617.309 -123.804)" fill="#fefefe" fill-rule="evenodd"/>
          <path id="Path_102" data-name="Path 102" d="M647.921,140.443a1.417,1.417,0,0,0-.563-1.375,1.6,1.6,0,0,0-1.911.185,1.428,1.428,0,0,0-.1,1.931,1.715,1.715,0,0,0,1.364.255C647.329,141.347,647.812,141.15,647.921,140.443Z" transform="translate(-618.344 -124.106)" fill="#3a3768" fill-rule="evenodd"/>
          <path id="Path_103" data-name="Path 103" d="M642.086,128.6a32.658,32.658,0,0,1,2.959-8.556,23.629,23.629,0,0,1,4.689-6.91c.121-.11.513-.5.821-.294.135.092.1.315-.023.425a20.882,20.882,0,0,0-4.97,6.759,35.68,35.68,0,0,0-3.225,8.755c-.089.385-.339.2-.251-.179Zm.8,2.469a.145.145,0,0,0,.116-.062c3.3-4.644,8.7-11.205,10.455-16.726.065-.2.193-.7-.121-.839-.152-.069-.33.06-.39.246-1.9,6.413-6.371,11.746-10.181,17.14a.154.154,0,0,0,.033.211.146.146,0,0,0,.089.029Zm13.774-14.157c-.146-.024-.033-.355-.072-.72a4.08,4.08,0,0,0-.8-2.068,3.985,3.985,0,0,0-.8-.792c-.093-.079-.071-.23.049-.337a.311.311,0,0,1,.387-.048,4.182,4.182,0,0,1,.747.909,4.458,4.458,0,0,1,.69,2.319c.013.4-.078.757-.2.737Zm7.6,4.244a16.883,16.883,0,0,0-3.013-4.845,14.168,14.168,0,0,0-4.226-3.611.229.229,0,0,1-.052-.281.366.366,0,0,1,.394-.1,12.014,12.014,0,0,1,4.235,3.674,17.878,17.878,0,0,1,2.921,5.044C664.6,121.241,664.342,121.365,664.267,121.153Z" transform="translate(-633.706 -111.214)" fill="#422f2a" fill-rule="evenodd"/>
          <path id="Path_104" data-name="Path 104" d="M659.977,134.812a3.486,3.486,0,0,1,.919-1.015,4.113,4.113,0,0,1,1.208-.6,3.081,3.081,0,0,1,1.35-.112,1.93,1.93,0,0,1,1.244.682A9.649,9.649,0,0,0,659.977,134.812Z" transform="translate(-642.796 -121.301)" fill="#894e26" fill-rule="evenodd"/>
          <path id="Path_105" data-name="Path 105" d="M643.837,133.152a2,2,0,0,1,2.06-.719,2.805,2.805,0,0,1,2.179,1.749A7.251,7.251,0,0,0,643.837,133.152Z" transform="translate(-617.875 -120.98)" fill="#894e26" fill-rule="evenodd"/>
          <path id="Path_106" data-name="Path 106" d="M660.733,142.162c.549-2.58,4.2-4.29,5.546-1.348C664.6,139.509,661.95,140.718,660.733,142.162Z" transform="translate(-644.766 -124.318)" fill="#663936" fill-rule="evenodd"/>
          <path id="Path_109" data-name="Path 109" d="M648.033,139.162c-1.393-1.218-3.572-.465-4.659.87C643.539,137.839,647.005,136.082,648.033,139.162Z" transform="translate(-617.593 -123.462)" fill="#663936" fill-rule="evenodd"/>
          <path id="Path_112" data-name="Path 112" d="M651.2,139.911a8.868,8.868,0,0,0,.41,4.138.873.873,0,0,0,.474.479c.533.17.958-.222,1.5.141.4.266.31,1.309.12,1.888a3.807,3.807,0,0,1-1.722.9C647.62,148.638,649.06,141.077,651.2,139.911Z" transform="translate(-626.396 -124.631)" fill-rule="evenodd" fill="url(#linear-gradient-4)"/>
          <g id="Group_12" data-name="Group 12" transform="translate(21.357 24.589)">
            <path id="Path_115" data-name="Path 115" d="M654.35,158.029a7.925,7.925,0,0,0-.79,1.44,6.25,6.25,0,0,1-.6,1.328,2.5,2.5,0,0,1-1.791.846c-.774.092-1.921.018-2.242-.433l-1.654-2.31a9.1,9.1,0,0,0,4.251.259A8.99,8.99,0,0,0,654.35,158.029Z" transform="translate(-647.272 -158.021)" fill="#fdfdfd" fill-rule="evenodd"/>
            <path id="Path_116" data-name="Path 116" d="M653.928,163.084a2.274,2.274,0,0,1-1.717,1.544,2.332,2.332,0,0,1-2.538-1.029A6.145,6.145,0,0,0,653.928,163.084Z" transform="translate(-648.084 -160.476)" fill="#d0807a" fill-rule="evenodd"/>
            <path id="Path_119" data-name="Path 119" d="M647.9,158.919a10.009,10.009,0,0,0,3.954.336,10.554,10.554,0,0,0,3.125-1.186,16.265,16.265,0,0,0-3.125.041A19.747,19.747,0,0,0,647.9,158.919Z" transform="translate(-647.896 -158.013)" fill="#d0807a" fill-rule="evenodd"/>
          </g>
          <path id="Path_120" data-name="Path 120" d="M653.463,229.274a117.454,117.454,0,0,1-12.556,1.381c.69,1.147,2.137,1.306,3.909,1.347,1.2.028,2.51.021,3.884-.033A5.411,5.411,0,0,0,653.463,229.274Z" transform="translate(-621.755 -168.042)" fill="#55537b" fill-rule="evenodd"/>
          <path id="Path_131" data-name="Path 131" d="M685.381,242.247c1.518-4.849,7.541-22.33,8.815-28.631.167-1.143-5.82,5.037-6.087,5.193a8,8,0,0,0-2.132,3.035,4.163,4.163,0,0,0-.638,1.681c-1.486,5.2-.5,2.5-2.25,9-.566,3.115-3.425,10.264-3.329,12.9a1.413,1.413,0,0,0,1.332,1.529A18.657,18.657,0,0,0,685.381,242.247Z" transform="translate(-679.758 -167.286)" fill="#cb9662" fill-rule="evenodd"/>
          <g id="Group_13" data-name="Group 13" transform="translate(12.497 190.77)">
            <path id="Path_133" data-name="Path 133" d="M661.242,483.336c.6-.64,1.326-1.317,2.037-2.027a12.316,12.316,0,0,1,5,.287l1.386,2.236c.048.907.1,1.8.154,2.7h-8.948A14.26,14.26,0,0,1,661.242,483.336Z" transform="translate(-660.866 -481.187)" fill="#3a3768" fill-rule="evenodd"/>
            <path id="Path_134" data-name="Path 134" d="M667.962,484.053a16.3,16.3,0,0,0-5.1,0l1.048-1.014a9.309,9.309,0,0,1,3.648.187l.4.823Zm-7.046,2.8c.012-.355.03-.424.058-.9h8.787l.055.9Z" transform="translate(-660.894 -482.04)" fill="#bacbdb" fill-rule="evenodd"/>
          </g>
          <g id="Group_14" data-name="Group 14" transform="translate(47.207 190.716)">
            <path id="Path_135" data-name="Path 135" d="M598.715,484.637a3.036,3.036,0,0,0-.9-1.73,17.465,17.465,0,0,0-3.41-.846l-2.814-.978-4.963,1.007-.353,1.466c.061,1,.079,1.944.116,2.927l12.48,0A11.488,11.488,0,0,0,598.715,484.637Z" transform="translate(-586.27 -481.082)" fill="#3a3768" fill-rule="evenodd"/>
            <path id="Path_136" data-name="Path 136" d="M598.81,486.227l-12.48,0-.034-.9h12.446a6.253,6.253,0,0,1,.069.895Zm-4.633-3.773-1.357,2.23h-1.192l1.793-2.479.756.249Zm-1.622-.542-.7-.257L589,484.684h1.747Z" transform="translate(-586.228 -481.36)" fill="#bacbdb" fill-rule="evenodd"/>
            <path id="Path_507" data-name="Path 507" d="M608.861,485.171l-.981,1.953h-.794l1.273-2.1.5.145Z" transform="translate(-599.619 -483.8)" fill="#bacbdb" fill-rule="evenodd"/>
          </g>
          <path id="Path_504" data-name="Path 504" d="M136.889,72.01l-3.11,20.127" transform="translate(-104.048 -52.158)" fill="#9b7474" stroke="#707070" stroke-width="0.05"/>
          <path id="Path_97" data-name="Path 97" d="M627.1,130.287c4.752-4.374,10.776-11.084,11.158-13.138,1.655,2.645,3.809,4.6,6.261,5.05.1,2.563,1.977,6.429,2.987,8.057-.135-2.3-.623-6.292-.715-8.057a4.057,4.057,0,0,0,.491-.065c.782-4.3-2.714-8.1-5.4-10.464-2.092-1.84-3.171-1.671-5.863-.7a8.24,8.24,0,0,0-5.664,0c-.623.318-5.013,4.82-7.971,11.008-2.833,5.926-4.229,13.488-5.407,19.1-1.54,14.674,3.25,23.119,3.347,25.36.143,3.291,10.078-9.152,12.521-18.284.754-3.879.475-3.629,0-6.011a12.309,12.309,0,0,0,.21-1.623c-2.012-1.626-4.144-2.687-3.178-2.6C627.7,133.212,627.637,132.936,627.1,130.287Z" transform="translate(-614.59 -110.256)" fill-rule="evenodd" fill="url(#linear-gradient-5)"/>
          <g id="Group_1266" data-name="Group 1266" transform="translate(-1074.683 -181.299)">
            <path id="Path_2227" data-name="Path 2227" d="M1102.735,239.383l-4.5.641-.468-.042-.651-12.863,5.581-.005Z" transform="translate(-2.331 -0.021)" fill="#4e565a" fill-rule="evenodd"/>
            <path id="Path_2228" data-name="Path 2228" d="M1108.188,236.591a.524.524,0,0,1-.469.552.5.5,0,0,1-.6-.374.524.524,0,0,1,.469-.552A.5.5,0,0,1,1108.188,236.591Z" transform="translate(-9.758 -6.777)" fill="#9d9e9e" fill-rule="evenodd"/>
            <path id="Path_2229" data-name="Path 2229" d="M1095.288,239.992l.56.018-1.048-12.925-.821.25Z" fill="#b2b3b3" fill-rule="evenodd"/>
          </g>
          <path id="Path_132" data-name="Path 132" d="M675.258,212.326l-1.222,6.019c-6.533,5.284-11.246,8.1-17.2,12.706-1.246,1.9-2.425,5.115-.656,6.187.371.225,1.2-.034,1.924-.387a27.2,27.2,0,0,0,5.091-3.822c2.21-1.979,4.309-4.133,5.706-5.48,2.227-2.146,4.43-4.35,6.683-6.668,1.016-1.228,2.134-2.675,3.488-4.161a24.707,24.707,0,0,1,.924-3.374c-.193-.31-.38-.58-.635-1.052a3.554,3.554,0,0,0-1.2.3,3.884,3.884,0,0,1,1.048-1.528,1.5,1.5,0,0,0-.687-.456A16.53,16.53,0,0,0,675.258,212.326Z" transform="translate(-655.102 -157.658)" fill="#cb9662" fill-rule="evenodd"/>
        </g>
      </g>
    </g>
  </g>
</svg>
