<svg xmlns="http://www.w3.org/2000/svg" xmlns:xlink="http://www.w3.org/1999/xlink" width="344.632" height="276.262" viewBox="0 0 344.632 276.262">
  <defs>
    <linearGradient id="linear-gradient" x1="0.5" x2="0.5" y2="1" gradientUnits="objectBoundingBox">
      <stop offset="0" stop-color="#22d78c"/>
      <stop offset="1" stop-color="#0ebca4"/>
    </linearGradient>
    <linearGradient id="linear-gradient-4" x1="0.505" y1="1.007" x2="0.505" gradientUnits="objectBoundingBox">
      <stop offset="0" stop-color="gray" stop-opacity="0.251"/>
      <stop offset="0.54" stop-color="gray" stop-opacity="0.122"/>
      <stop offset="1" stop-color="gray" stop-opacity="0.102"/>
    </linearGradient>
    <linearGradient id="linear-gradient-5" x1="0.5" x2="0.5" y2="1" gradientUnits="objectBoundingBox">
      <stop offset="0" stop-color="#6b4d42"/>
      <stop offset="1" stop-color="#805f4b"/>
    </linearGradient>
    <linearGradient id="linear-gradient-6" x1="0.39" y1="0.062" x2="0.458" y2="0.29" gradientUnits="objectBoundingBox">
      <stop offset="0" stop-color="#ad957e"/>
      <stop offset="0.224" stop-color="#b79271"/>
      <stop offset="0.59" stop-color="#b58f6a"/>
      <stop offset="0.966" stop-color="#cb9662"/>
      <stop offset="1" stop-color="#cb9662"/>
    </linearGradient>
    <linearGradient id="linear-gradient-7" x1="0.756" y1="1.159" x2="0.466" y2="0.437" gradientUnits="objectBoundingBox">
      <stop offset="0" stop-color="#cb9662"/>
      <stop offset="1" stop-color="#cb9662"/>
    </linearGradient>
    <linearGradient id="linear-gradient-8" x1="0.546" y1="0.507" x2="0.186" y2="0.487" gradientUnits="objectBoundingBox">
      <stop offset="0" stop-color="#c48e59"/>
      <stop offset="0.297" stop-color="#cb925a"/>
      <stop offset="0.695" stop-color="#c79360"/>
      <stop offset="1" stop-color="#cb9662"/>
    </linearGradient>
    <linearGradient id="linear-gradient-9" x1="0.299" y1="1.017" x2="0.724" y2="0.051" gradientUnits="objectBoundingBox">
      <stop offset="0" stop-color="#937054"/>
      <stop offset="0.52" stop-color="#674a41"/>
      <stop offset="0.89" stop-color="#352522"/>
      <stop offset="1" stop-color="#352522"/>
    </linearGradient>
  </defs>
  <g id="Group_1703" data-name="Group 1703" transform="translate(-15.368 -106.127)">
    <g id="Image" transform="translate(28.004 106.129)">
      <path id="Path_1683" data-name="Path 1683" d="M288.121,66.794c-21.284-.74-41.555-7.606-60.912-15.119s-38.529-15.839-59.3-19.819c-13.362-2.56-28.644-2.922-39.408,4.237-10.362,6.9-13.71,18.784-15.509,29.821-1.355,8.3-2.151,17.042,1.559,24.812,2.578,5.4,7.149,9.933,10.313,15.1,11.007,17.985,3.226,40.165-8.7,57.726-5.591,8.24-12.086,16.105-16.4,24.868s-6.314,18.817-2.536,27.764c3.742,8.874,12.664,15.527,22.33,20.211,19.63,9.515,42.752,12.237,65.315,13.778,49.931,3.415,100.125,1.936,150.188.457,18.528-.549,37.135-1.1,55.361-3.967,10.122-1.591,20.57-4.112,27.92-10.206,9.327-7.734,11.639-20.829,5.387-30.528-10.484-16.266-39.463-20.306-46.8-37.762-4.032-9.611.109-20.312,5.972-29.226,12.576-19.116,33.652-35.889,34.761-57.739.763-15.008-9.369-30.038-25.036-37.141-16.42-7.441-39.194-6.508-51.3,5.814C328.837,62.564,306.915,67.444,288.121,66.794Z" transform="translate(-95.23 -30.18)" opacity="0.1" fill="url(#linear-gradient)"/>
      <ellipse id="Ellipse_331" data-name="Ellipse 331" cx="99.964" cy="13.515" rx="99.964" ry="13.515" transform="translate(59.035 243.18)" opacity="0.1" fill="url(#linear-gradient)"/>
      <rect id="Rectangle_1738" data-name="Rectangle 1738" width="2.914" height="24" rx="1.457" transform="translate(211.389 95.257)" fill="#3a3768"/>
      <rect id="Rectangle_1740" data-name="Rectangle 1740" width="1.842" height="13.752" rx="0.921" transform="translate(114.504 90.921)" fill="#3a3768"/>
      <rect id="Rectangle_1741" data-name="Rectangle 1741" width="1.753" height="13.87" rx="0.876" transform="translate(114.533 109.485)" fill="#3a3768"/>
      <path id="Path_2235" data-name="Path 2235" d="M15.173,0H82.191c21.534,0,15.283,17.456,15.283,38.99V159c0,12.317-.3,22.963-1.313,30.91-1.8,5.171-5.378,8.623-15.733,8.08l-65.382.327C-4.518,198.588,0,180.537,0,159V38.99C0,17.456-6.361,0,15.173,0Z" transform="translate(115.487 50.343)" fill="#3a3768"/>
      <path id="Path_1684" data-name="Path 1684" d="M542.423,199H531.242v1.344a6.371,6.371,0,0,1-6.377,6.37h-35.56a6.371,6.371,0,0,1-6.377-6.37V199H472.461a7.739,7.739,0,0,0-7.741,7.737V378.956a7.739,7.739,0,0,0,7.741,7.737h69.962a7.739,7.739,0,0,0,7.741-7.737V206.75a7.739,7.739,0,0,0-7.741-7.75Z" transform="translate(-343.212 -143.513)" fill="url(#linear-gradient)"/>
      <rect id="Rectangle_1743" data-name="Rectangle 1743" width="13.612" height="2.761" rx="1.38" transform="translate(154.822 56.256)" fill="#e6e8ec"/>
      <ellipse id="Ellipse_332" data-name="Ellipse 332" cx="1.569" cy="1.568" rx="1.569" ry="1.568" transform="translate(170.492 56.068)" fill="#e6e8ec"/>
      <path id="Path_1685" data-name="Path 1685" d="M795.033,156.856s-27.69-1.67-24.428,17.722a4.711,4.711,0,0,0,2.46,4.983s.049-1.436,2.842-.947a13,13,0,0,0,3.009.145,6.269,6.269,0,0,0,3.676-1.5h0s7.784-3.215,10.81-15.928c0,0,2.24-2.774,2.151-3.487l-4.673,2s1.6,3.369.329,6.169c0,0-.151-6.048-1.049-5.916-.181.026-2.427,1.167-2.427,1.167s2.746,5.867.674,10.133c0,0,.786-7.231-1.533-9.709l-3.289,1.919s3.21,6.061,1.033,11.008c0,0,.559-7.586-1.726-10.541l-2.98,2.324s3.016,5.972,1.177,10.074c0,0-.24-8.828-1.822-9.5,0,0-2.608,2.3-3.006,3.241,0,0,2.065,4.339.783,6.626,0,0-.786-5.883-1.431-5.916,0,0-2.6,3.9-2.868,6.574a14.156,14.156,0,0,1,2.24-6.942,7.83,7.83,0,0,0-3.979,2.058s.4-2.754,4.621-3c0,0,2.147-2.958,2.72-3.136,0,0-4.19-.352-6.732.776,0,0,2.236-2.6,7.5-1.417l2.943-2.4s-5.518-.753-7.86.079c0,0,2.693-2.3,8.652-.625l3.2-1.913s-4.706-1.012-7.508-.657c0,0,2.96-1.594,8.448.135l2.3-1.029s-3.446-.677-4.456-.785-1.062-.385-1.062-.385a11.96,11.96,0,0,1,6.475.72S795.115,157.162,795.033,156.856Z" transform="translate(-548.324 -115.197)" fill="#21d68c"/>
      <path id="Path_1686" data-name="Path 1686" d="M736.295,130.657s-12.5-.753-11.037,8.01a2.137,2.137,0,0,0,1.112,2.251s.023-.657,1.286-.431a5.761,5.761,0,0,0,1.358.066,2.816,2.816,0,0,0,1.661-.684h0s3.519-1.453,4.887-7.2c0,0,1.009-1.252.97-1.574l-2.111.9a3.791,3.791,0,0,1,.155,2.787s-.069-2.731-.474-2.669c-.082,0-1.1.529-1.1.529s1.243,2.652.306,4.579c0,0,.355-3.267-.694-4.388l-1.487.881s1.45,2.738.467,4.973c0,0,.253-3.428-.779-4.763l-1.345,1.052s1.362,2.7.533,4.552c0,0-.112-3.99-.825-4.293a8.248,8.248,0,0,0-1.358,1.466s.934,1.972.355,2.994c0,0-.355-2.659-.658-2.672a8.846,8.846,0,0,0-1.3,2.958,6.412,6.412,0,0,1,1.013-3.136,3.54,3.54,0,0,0-1.8.93s.184-1.246,2.088-1.354a8.99,8.99,0,0,1,1.23-1.42,7.715,7.715,0,0,0-3.042.352s1.01-1.173,3.388-.641l1.315-1.085a11.358,11.358,0,0,0-3.552.036s1.217-1.039,3.91-.283l1.447-.864a13.184,13.184,0,0,0-3.394-.292,5.216,5.216,0,0,1,3.818.059l1.036-.463s-1.559-.306-2.016-.355-.48-.174-.48-.174a5.393,5.393,0,0,1,2.927.329A13.4,13.4,0,0,0,736.295,130.657Z" transform="translate(-517.989 -97.623)" fill="#21d68c"/>
      <ellipse id="Ellipse_333" data-name="Ellipse 333" cx="8.856" cy="1.495" rx="8.856" ry="1.495" transform="translate(275.333 252.685)" fill="#34c47c" opacity="0.1"/>
      <ellipse id="Ellipse_334" data-name="Ellipse 334" cx="8.856" cy="1.495" rx="8.856" ry="1.495" transform="translate(21.097 264.958)" fill="#34c47c" opacity="0.1"/>
      <ellipse id="Ellipse_335" data-name="Ellipse 335" cx="8.856" cy="1.495" rx="8.856" ry="1.495" transform="translate(55.355 272.981)" fill="#34c47c" opacity="0.1"/>
      <ellipse id="Ellipse_336" data-name="Ellipse 336" cx="13.224" cy="2.235" rx="13.224" ry="2.235" transform="translate(251.58 267.972)" fill="#21d68c"/>
      <path id="Path_1687" data-name="Path 1687" d="M892.12,828.718a3.849,3.849,0,0,0,1.259-1.9,1.7,1.7,0,0,0-.881-1.936,2.479,2.479,0,0,0-2.328.819,3.11,3.11,0,0,1-2.266,1.091,3.443,3.443,0,0,0,1.069-3.224,1.359,1.359,0,0,0-.3-.657c-.447-.48-1.263-.276-1.8.105-1.71,1.2-2.187,3.523-2.2,5.611a10.556,10.556,0,0,1-.033-2.3,2.376,2.376,0,0,0-.868-2.048,2.613,2.613,0,0,0-1.315-.309,2.74,2.74,0,0,0-2.151.611,2.118,2.118,0,0,0,.085,2.63,8.369,8.369,0,0,0,2.226,1.781,4.933,4.933,0,0,1,1.589,1.515,1.38,1.38,0,0,1,.118.273h4.8A13.5,13.5,0,0,0,892.12,828.718Z" transform="translate(-621.848 -562.166)" fill="#21d68c"/>
      <path id="Path_1688" data-name="Path 1688" d="M281.73,753.45s1.809,2.363-.832,5.916-4.818,6.574-3.946,8.8c0,0,3.986-6.623,7.235-6.715S285.3,757.434,281.73,753.45Z" transform="translate(-217.062 -515.727)" fill="#34c47c"/>
      <path id="Path_1689" data-name="Path 1689" d="M281.947,753.45a2.9,2.9,0,0,1,.368.743c3.164,3.714,4.851,7.182,1.809,7.267-2.831.082-6.229,5.144-7.044,6.422.026.1.059.194.1.293,0,0,3.986-6.623,7.235-6.715S285.515,757.434,281.947,753.45Z" transform="translate(-217.279 -515.727)" opacity="0.1"/>
      <path id="Path_1690" data-name="Path 1690" d="M301.244,761.523c0,.832-.092,1.505-.207,1.505s-.207-.674-.207-1.505.115-.44.23-.44S301.244,760.691,301.244,761.523Z" transform="translate(-233.219 -520.789)" fill="#ffd037"/>
      <path id="Path_1691" data-name="Path 1691" d="M302.694,764.463c-.73.4-1.368.637-1.421.535s.49-.506,1.22-.9.444-.109.5,0S303.424,764.065,302.694,764.463Z" transform="translate(-233.514 -522.736)" fill="#ffd037"/>
      <path id="Path_1692" data-name="Path 1692" d="M254.581,753.45s-1.809,2.363.832,5.916,4.818,6.574,3.946,8.8c0,0-3.982-6.623-7.235-6.715S251.007,757.434,254.581,753.45Z" transform="translate(-199.454 -515.727)" fill="#34c47c"/>
      <path id="Path_1693" data-name="Path 1693" d="M254.567,753.45a2.959,2.959,0,0,0-.372.743c-3.164,3.714-4.847,7.182-1.809,7.267,2.835.082,6.232,5.144,7.048,6.422a2.567,2.567,0,0,1-.1.293s-3.983-6.623-7.235-6.715S250.992,757.434,254.567,753.45Z" transform="translate(-199.439 -515.727)" opacity="0.1"/>
      <path id="Path_1694" data-name="Path 1694" d="M252.65,761.523c0,.832.1,1.505.21,1.505s.207-.674.207-1.505-.115-.44-.23-.44S252.65,760.691,252.65,761.523Z" transform="translate(-200.883 -520.789)" fill="#ffd037"/>
      <path id="Path_1695" data-name="Path 1695" d="M248.242,764.463c.73.4,1.365.637,1.421.535s-.493-.506-1.223-.9-.441-.109-.5,0S247.512,764.065,248.242,764.463Z" transform="translate(-197.626 -522.736)" fill="#ffd037"/>
      <path id="Path_1696" data-name="Path 1696" d="M254.4,791.736s5.051-.158,6.577-1.239,7.771-2.38,8.146-.641,7.593,8.641,1.891,8.687-13.253-.888-14.773-1.811S254.4,791.736,254.4,791.736Z" transform="translate(-202.058 -539.596)" fill="#a8a8a8"/>
      <path id="Path_1697" data-name="Path 1697" d="M271.113,803.5c-5.7.046-13.253-.887-14.772-1.811-1.154-.707-1.618-3.234-1.773-4.4H254.4s.329,4.069,1.838,5,9.07,1.857,14.772,1.811c1.644,0,2.213-.6,2.184-1.466C272.964,803.163,272.336,803.489,271.113,803.5Z" transform="translate(-202.058 -545.157)" opacity="0.2"/>
      <path id="Path_1698" data-name="Path 1698" d="M377.46,474.88a.3.3,0,0,0,.358.046A1.271,1.271,0,0,1,377.46,474.88Z" transform="translate(-284.648 -328.717)" fill="url(#linear-gradient-4)"/>
      <path id="Path_1716" data-name="Path 1716" d="M234.539,427.29l4.815,2.886a4.7,4.7,0,0,0-1.789,1.265c-.4-1.17-2.92-2.8-4.065-3.5C234.122,427.523,234.539,427.29,234.539,427.29Z" transform="translate(-188.031 -296.769)" opacity="0.1"/>
      <path id="Path_1717" data-name="Path 1717" d="M377.059,471.736a.286.286,0,0,1-.329-.046A1.143,1.143,0,0,0,377.059,471.736Z" transform="translate(-284.158 -326.576)" opacity="0.1"/>
    </g>
    <g id="Group_1268" data-name="Group 1268" transform="translate(-10 -24)">
      <path id="Path_92" data-name="Path 92" d="M6.637,5.136,5.68,1.949,5.482.008,1.333,0,1.4,1.8,0,4.881,1.278,6.5l4.329,0Z" transform="translate(51.488 257.33) rotate(142)" fill="#fcc078" fill-rule="evenodd"/>
      <path id="Path_2236" data-name="Path 2236" d="M0,4.676,4.477,0l11.47,22.912L25.317,56,20.7,58.686s-2.038-1.425-4.751-7.333-6.1-16.3-6.1-16.3Z" transform="translate(45.856 256.545) rotate(-6)" fill="#333058"/>
      <g id="_2" data-name="2" transform="translate(81.576 167.973)">
        <path id="Path_505" data-name="Path 505" d="M101.189,86.681,91.018,95.544l-1.662-29.45s14.671-8.786,15.481-4.529" transform="translate(-95.217 -61.886)" fill="url(#linear-gradient-5)"/>
        <g id="Group_16" data-name="Group 16" transform="translate(-56.208 -33.868)">
          <path id="Path_88" data-name="Path 88" d="M562.848,492.418h6.028v1.526H646.9v-1.526h6.047V490.7H642.561v-1.526H573.035V490.7H562.848Z" transform="translate(-553.198 -221.66)" fill="#eaf9f2" fill-rule="evenodd" opacity="0.42"/>
          <g id="Group_15" data-name="Group 15" transform="translate(0 0)">
            <path id="Path_515" data-name="Path 515" d="M0,4,4.477,0l11.47,19.6,9.37,28.3L20.7,50.2s-2.038-1.219-4.751-6.273-6.1-13.943-6.1-13.943Z" transform="translate(49.632 131.414) rotate(-8)" fill="#333058"/>
            <rect id="Rectangle_1" data-name="Rectangle 1" width="7.214" height="18.893" transform="translate(44.531 29.231)" fill="#725446"/>
            <path id="Path_89" data-name="Path 89" d="M629.054,217.333c-3.825-4.78-7.154-8.24-10.824-12.667-3.757-4.535-7.324-9.3-9.782-12.58-1.3-1.733-2.036-2.706-3.935-3.511,1.516,8.671,2.514,11.98,3.3,18.019a216.674,216.674,0,0,0,17.21,15.565,14.777,14.777,0,0,0,3.161,1.959C628.855,224.456,629.261,219.447,629.054,217.333Z" transform="translate(-539.141 -138.445)" fill="#cb9662" fill-rule="evenodd"/>
            <path id="Path_90" data-name="Path 90" d="M601.825,179.06l3.43,1.49c-.165,10.011-.5,23.471-1.655,33.349-.176,1.5-.914,5.622-2.653,7.328-.87.387-2.137-.528-2.728-1.172-2.846-3.1-1.111-14.09-.484-18.222C598.993,193.542,600.4,187.308,601.825,179.06Z" transform="translate(-510.793 -135.437)" fill="#cb9662" fill-rule="evenodd"/>
            <path id="Path_93" data-name="Path 93" d="M612.653,279.181c.812,4.2,2.334,9.486,3.463,14,3.016,16.366,5.6,31.666,9.164,47.934v4.723c-.04-.007-.221-1.693,0,0-1.5,9.769-10.36,1.133-10.157-3.324-6.907-17.806-10-27.44-15.433-44.168l-1.157-.12c-.314,13.868-1.2,28.968-2.133,42.941-.027.4-.058.872-.09,1.344l-.736,4.7s-1.642,2.474-3.735,2.859-5.462-5.444-5.462-5.444c-2.95-34.16-4.68-36.142-5.3-50.47.3-4.008,2.089-10.447,3.44-14.966Z" transform="translate(-543.384 -171.102)" fill="#3a3768" fill-rule="evenodd"/>
            <path id="Path_94" data-name="Path 94" d="M666.9,208.2a190.068,190.068,0,0,0-4.868-21.078,41.244,41.244,0,0,0-8.746-3.017l-7.7.493a48.194,48.194,0,0,0-8.75,3.746,2.928,2.928,0,0,0-.551.356,93.56,93.56,0,0,0-1.788,12.885,144.984,144.984,0,0,1,3.282,19.829c.451,5.007,2.032,9.662,1.4,14.68-.576,4.581-3.174,8.755-3.822,13.912,5.007,2.81,12.965,3.43,18.2,3.287,5.436-.148,11.442-1.777,13.219-4.144-.845-5.3-4.037-9.328-4.475-13.055-.679-5.792,1.841-10.873,3.147-20.335A21.748,21.748,0,0,0,666.9,208.2Z" transform="translate(-596.108 -136.737)" fill="#6f6c8e" fill-rule="evenodd"/>
            <path id="Path_95" data-name="Path 95" d="M649.621,178.869l3.684-1.81.6-12.6,5.992.6.891,12,3.691,1.146c.215,3.628,1.864,15.01-3.691,15.892C654.044,195.167,651.107,183.671,649.621,178.869Z" transform="translate(-603.298 -129.753)" fill-rule="evenodd" fill="url(#linear-gradient-6)"/>
            <path id="Path_98" data-name="Path 98" d="M637.221,139.234c6.212-5.267,14.656-14.6,15.157-17.07,2.32,3.19,5.983,6.127,9.271,6.573a20.325,20.325,0,0,0,1.251,4.975,35.3,35.3,0,0,1,1.651,5.522c-1.275,5.9-4,13.655-8.8,16.132C647.506,155.1,640.274,147.739,637.221,139.234Z" transform="translate(-596.45 -114.509)" fill-rule="evenodd" fill="url(#linear-gradient-7)"/>
            <path id="Path_99" data-name="Path 99" d="M667.361,142.5a4.777,4.777,0,0,1-3.155,1.554,7.129,7.129,0,0,1-3.915-.876c.325-1.335,1.38-1.5,2.571-2.134S666.515,139.983,667.361,142.5Z" transform="translate(-613.067 -121.137)" fill="#fefefe" fill-rule="evenodd"/>
            <path id="Path_100" data-name="Path 100" d="M662.577,142.815a2,2,0,0,1,.089-1.336,5.015,5.015,0,0,1,3.3-.539c.407.086.555,1.133.54,1.479a1.848,1.848,0,0,1-.562,1.388,3.181,3.181,0,0,1-2.581.228A1.964,1.964,0,0,1,662.577,142.815Z" transform="translate(-613.63 -121.25)" fill="#3a3768" fill-rule="evenodd"/>
            <path id="Path_101" data-name="Path 101" d="M643.025,141.212a5.874,5.874,0,0,0,3.483.6,4.259,4.259,0,0,0,2.615-1.038c-.171-.85-.9-2.352-2.2-2.543A4.012,4.012,0,0,0,643.025,141.212Z" transform="translate(-583.786 -120.292)" fill="#fefefe" fill-rule="evenodd"/>
            <path id="Path_102" data-name="Path 102" d="M648.63,140.835a1.763,1.763,0,0,0-.7-1.71,1.99,1.99,0,0,0-2.377.23,1.776,1.776,0,0,0-.125,2.4,2.133,2.133,0,0,0,1.7.317C647.893,141.96,648.493,141.715,648.63,140.835Z" transform="translate(-584.588 -120.516)" fill="#3a3768" fill-rule="evenodd"/>
            <path id="Path_103" data-name="Path 103" d="M642.091,132.572a40.621,40.621,0,0,1,3.681-10.642c1.456-2.986,3.42-6.394,5.832-8.594.15-.137.638-.626,1.021-.366.168.114.122.392-.029.529a25.973,25.973,0,0,0-6.181,8.407,44.38,44.38,0,0,0-4.011,10.889c-.111.479-.422.255-.313-.223Zm1,3.071a.18.18,0,0,0,.144-.077c4.1-5.777,10.821-13.937,13-20.8.081-.255.24-.865-.151-1.043-.189-.086-.41.075-.485.306-2.361,7.976-7.924,14.61-12.663,21.319a.191.191,0,0,0,.041.262.182.182,0,0,0,.111.036Zm17.132-17.608c-.182-.029-.041-.442-.09-.9a5.073,5.073,0,0,0-1-2.572,4.957,4.957,0,0,0-.99-.986c-.116-.1-.088-.287.061-.419a.387.387,0,0,1,.481-.059,5.2,5.2,0,0,1,.929,1.131,5.544,5.544,0,0,1,.858,2.884c.016.494-.1.941-.25.917Zm9.457,5.278a21,21,0,0,0-3.747-6.026,17.621,17.621,0,0,0-5.256-4.491.284.284,0,0,1-.065-.349.455.455,0,0,1,.491-.13c1.555.586,3.535,2.4,5.267,4.57A22.236,22.236,0,0,1,670,123.16C670.1,123.423,669.772,123.576,669.679,123.313Z" transform="translate(-604.414 -110.951)" fill="#422f2a" fill-rule="evenodd"/>
            <path id="Path_104" data-name="Path 104" d="M659.977,135.24a4.335,4.335,0,0,1,1.143-1.262,5.116,5.116,0,0,1,1.5-.743,3.833,3.833,0,0,1,1.679-.139,2.4,2.4,0,0,1,1.548.848A12,12,0,0,0,659.977,135.24Z" transform="translate(-611.354 -118.435)" fill="#894e26" fill-rule="evenodd"/>
            <path id="Path_105" data-name="Path 105" d="M643.837,133.336a2.483,2.483,0,0,1,2.563-.894,3.489,3.489,0,0,1,2.71,2.175A9.019,9.019,0,0,0,643.837,133.336Z" transform="translate(-584.292 -118.197)" fill="#894e26" fill-rule="evenodd"/>
            <path id="Path_106" data-name="Path 106" d="M660.733,142.868c.683-3.209,5.219-5.336,6.9-1.677C665.544,139.568,662.246,141.071,660.733,142.868Z" transform="translate(-613.62 -120.674)" fill="#663936" fill-rule="evenodd"/>
            <path id="Path_109" data-name="Path 109" d="M649.169,139.566c-1.733-1.515-4.443-.578-5.795,1.082C643.579,137.921,647.891,135.736,649.169,139.566Z" transform="translate(-584.055 -120.038)" fill="#663936" fill-rule="evenodd"/>
            <path id="Path_112" data-name="Path 112" d="M651.7,139.911a11.026,11.026,0,0,0,.51,5.147,1.086,1.086,0,0,0,.59.6c.663.212,1.192-.276,1.871.176.5.331.385,1.628.149,2.348a4.735,4.735,0,0,1-2.142,1.119C647.248,150.766,649.039,141.361,651.7,139.911Z" transform="translate(-593.597 -120.906)" fill-rule="evenodd" fill="url(#linear-gradient-8)"/>
            <g id="Group_12" data-name="Group 12" transform="translate(53.817 30.583)">
              <path id="Path_115" data-name="Path 115" d="M656.076,158.029a9.86,9.86,0,0,0-.983,1.791,7.762,7.762,0,0,1-.747,1.652,3.109,3.109,0,0,1-2.227,1.052c-.963.114-2.389.023-2.789-.539l-2.057-2.873a11.312,11.312,0,0,0,5.287.322A11.179,11.179,0,0,0,656.076,158.029Z" transform="translate(-647.272 -158.019)" fill="#fdfdfd" fill-rule="evenodd"/>
              <path id="Path_116" data-name="Path 116" d="M654.965,163.084A2.828,2.828,0,0,1,652.829,165a2.9,2.9,0,0,1-3.156-1.28A7.643,7.643,0,0,0,654.965,163.084Z" transform="translate(-647.697 -159.841)" fill="#d0807a" fill-rule="evenodd"/>
              <path id="Path_119" data-name="Path 119" d="M647.9,159.14a12.449,12.449,0,0,0,4.918.418,13.124,13.124,0,0,0,3.886-1.476,20.23,20.23,0,0,0-3.886.051A24.562,24.562,0,0,0,647.9,159.14Z" transform="translate(-647.896 -158.013)" fill="#d0807a" fill-rule="evenodd"/>
            </g>
            <path id="Path_120" data-name="Path 120" d="M656.523,229.274a146.1,146.1,0,0,1-15.616,1.718c.858,1.427,2.658,1.624,4.861,1.675,1.49.035,3.122.026,4.831-.042A6.73,6.73,0,0,0,656.523,229.274Z" transform="translate(-589.832 -153.114)" fill="#55537b" fill-rule="evenodd"/>
            <path id="Path_121" data-name="Path 121" d="M589.4,166.376c.477-.9,1.545-2.443,2.021-3.342l1.332-.57a10.88,10.88,0,0,1,2.205-1.712,2.749,2.749,0,0,1,1.429.911,2.228,2.228,0,0,1-.089.945c.411-.153,1.181.617,1.708,1.609a4.637,4.637,0,0,1-.035,1.481.867.867,0,0,1,.6.162,3.536,3.536,0,0,1,.565,1.379c-.583,1.086-.674,1.424-1.257,2.51-.582.677-1.445,2.139-2.141,2.778a34.853,34.853,0,0,1-3.438,1.889C590.716,173.53,588.8,169.234,589.4,166.376Z" transform="translate(-499.438 -128.418)" fill="#cb9662" fill-rule="evenodd"/>
            <path id="Path_129" data-name="Path 129" d="M591.885,161.258l2.3,3.976,1.893,2.821-2.2.83c-.309-.042-.469-.288-.5-.7l.911-1.306-.008-.1a5.3,5.3,0,0,0-2.163.615,3.539,3.539,0,0,1-1.379-2.368,5.2,5.2,0,0,1,1.68-1.541l-.127-.325-1.86.108c-.285-.088-.338-.781-.108-.963Z" transform="translate(-496.938 -128.6)" fill="#cb9662" fill-rule="evenodd"/>
            <path id="Path_130" data-name="Path 130" d="M600.663,169.557l.667-1.58.6-1.428c.458.048.664.627.787,1.323l-.232,1.947.768,3.564Z" transform="translate(-510.827 -130.506)" fill="#cb9662" fill-rule="evenodd"/>
            <path id="Path_131" data-name="Path 131" d="M686.752,249.261c1.888-6.032,9.38-27.774,10.964-35.61.208-1.422-7.238,6.264-7.571,6.459a9.949,9.949,0,0,0-2.652,3.775,5.177,5.177,0,0,0-.794,2.091c-1.848,6.47-.622,3.1-2.8,11.2-.7,3.874-4.26,12.766-4.14,16.048a1.757,1.757,0,0,0,1.657,1.9A23.2,23.2,0,0,0,686.752,249.261Z" transform="translate(-652.505 -156.025)" fill="#cb9662" fill-rule="evenodd"/>
            <path id="Path_132" data-name="Path 132" d="M5.9,2.134,7.416,9.62c8.125,6.572,13.987,10.07,21.39,15.8,1.55,2.364,3.017,6.362.815,7.7-.462.28-1.488-.042-2.393-.481A33.829,33.829,0,0,1,20.9,27.884c-2.748-2.462-5.359-5.14-7.1-6.816-2.77-2.669-5.51-5.411-8.312-8.294C4.224,11.247,2.833,9.447,1.149,7.6A30.746,30.746,0,0,0,0,3.4c.24-.386.473-.722.789-1.309a4.42,4.42,0,0,1,1.492.375,4.83,4.83,0,0,0-1.3-1.9A1.869,1.869,0,0,1,1.832,0,20.558,20.558,0,0,1,5.9,2.134Z" transform="matrix(0.966, 0.259, -0.259, 0.966, 8.599, 59.014)" fill="#cb9662" fill-rule="evenodd"/>
            <path id="Path_504" data-name="Path 504" d="M137.647,72.01l-3.868,25.034" transform="translate(-69.546 -47.319)" fill="#9b7474" stroke="#707070" stroke-width="0.05"/>
            <path id="Path_97" data-name="Path 97" d="M629.644,135.17c5.911-5.44,13.4-13.786,13.878-16.341,2.059,3.29,4.737,5.718,7.787,6.281.126,3.188,2.459,8,3.715,10.021-.168-2.86-.775-7.826-.889-10.021a5.047,5.047,0,0,0,.611-.081c.972-5.345-3.376-10.077-6.714-13.014-2.6-2.289-3.944-2.078-7.292-.871-2.258-.8-5.36-.861-7.045,0-.775.4-6.234,5.994-9.914,13.692-3.523,7.371-5.26,16.776-6.726,23.76-1.916,18.251,4.042,28.756,4.164,31.543.178,4.093,12.534-11.383,15.573-22.741.938-4.824.59-4.514,0-7.476a15.29,15.29,0,0,0,.261-2.019c-2.5-2.022-5.154-3.342-3.952-3.232C630.39,138.808,630.309,138.465,629.644,135.17Z" transform="translate(-586.827 -110.256)" fill-rule="evenodd" fill="url(#linear-gradient-9)"/>
          </g>
        </g>
      </g>
    </g>
    <text id="_275_points" data-name="+ 275 
points" transform="translate(191 249)" fill="#fff" font-size="16" font-family="Helvetica-Bold, Helvetica" font-weight="700" letter-spacing="-0.024em"><tspan x="-21.505" y="0">+ 275 </tspan><tspan x="-23.036" y="18">points</tspan></text>
  </g>
</svg>
