<svg xmlns="http://www.w3.org/2000/svg" width="32" height="32" viewBox="0 0 32 32">
  <g id="objective" transform="translate(0 -0.08)">
    <g id="Group_1589" data-name="Group 1589" transform="translate(0 0.08)">
      <path id="Path_2587" data-name="Path 2587" d="M26.478,10.043,31.817,4.7A.618.618,0,0,0,31.4,3.645l.019.037-2.9-.1-.1-2.905A.618.618,0,0,0,27.362.264l-5.333,5.31a.618.618,0,0,0-.179.457v.618a13.948,13.948,0,1,0,3.572,3.573h.618A.618.618,0,0,0,26.478,10.043Zm.185,8.1A12.719,12.719,0,1,1,21.924,8.25l.031,1.032-2.472,2.473a8.47,8.47,0,1,0,.865.878L22.82,10.16l1.02.037A12.713,12.713,0,0,1,26.663,18.141Zm-13.112.414a.618.618,0,0,0,.871,0l1.236-1.236a1.868,1.868,0,1,1-.871-.872l-1.236,1.236A.618.618,0,0,0,13.551,18.555Zm2.138-3.017a3.091,3.091,0,1,0,.871.872l2.929-2.93a7.216,7.216,0,1,1-.871-.872ZM23.2,8.9l-.087-2.633,4.14-4.142.068,2.058a.618.618,0,0,0,.618.618L30,4.869,25.835,8.986Z" transform="translate(0 -0.08)" fill="#21d68c"/>
    </g>
  </g>
</svg>
