<svg xmlns="http://www.w3.org/2000/svg" width="32.336" height="32.33" viewBox="0 0 32.336 32.33">
  <g id="target" transform="translate(0 -0.05)">
    <g id="Group_1698" data-name="Group 1698" transform="translate(0 0.05)">
      <path id="Path_2653" data-name="Path 2653" d="M185.15,14.359a3.079,3.079,0,1,0,2.26,2.968,3.03,3.03,0,0,0-.112-.82l8.579-8.579,1.388.185,4.342-4.342-3.285-.436L197.886.05l-4.342,4.342.185,1.388Z" transform="translate(-169.271 -0.05)" fill="#21d68c"/>
      <path id="Path_2654" data-name="Path 2654" d="M102.08,129.4l2.538-2.538a8.924,8.924,0,1,0,5.585,5.578l-2.538,2.538a5.926,5.926,0,1,1-5.585-5.578Z" transform="translate(-86.69 -118.036)" fill="#21d68c"/>
      <path id="Path_2655" data-name="Path 2655" d="M25.7,43.676a11.777,11.777,0,1,1-5.585-5.585l2.426-2.426a15.053,15.053,0,1,0,5.578,5.578Z" transform="translate(0 -31.455)" fill="#21d68c"/>
    </g>
  </g>
</svg>
